<svg viewBox="0 0 750 614" fill="none" xmlns="http://www.w3.org/2000/svg">
<g clip-path="url(#clip0)">
<g opacity="0.1">
<path opacity="0.1" d="M268.727 323.248C274.708 323.248 279.557 316.678 279.557 308.574C279.557 300.471 274.708 293.901 268.727 293.901C262.746 293.901 257.897 300.471 257.897 308.574C257.897 316.678 262.746 323.248 268.727 323.248Z" fill="#3F3D56"/>
<path opacity="0.1" d="M277.301 245.794C278.812 243.064 279.594 239.968 279.566 236.822C279.566 228.718 274.713 222.149 268.727 222.149C262.741 222.149 257.859 228.737 257.859 236.842C257.832 239.988 258.613 243.084 260.124 245.814C258.639 248.552 257.86 251.64 257.86 254.78C257.86 257.92 258.639 261.008 260.124 263.747C258.639 266.485 257.86 269.573 257.86 272.713C257.86 275.853 258.639 278.941 260.124 281.68C258.611 284.408 257.829 287.505 257.859 290.651C257.859 298.746 262.713 305.325 268.689 305.325C274.665 305.325 279.528 298.746 279.528 290.651C279.558 287.505 278.777 284.408 277.263 281.68C278.748 278.941 279.528 275.853 279.528 272.713C279.528 269.573 278.748 266.485 277.263 263.747C278.748 261.008 279.528 257.92 279.528 254.78C279.528 251.64 278.748 248.552 277.263 245.814L277.301 245.794Z" fill="#3F3D56"/>
<path opacity="0.1" d="M268.727 233.582C274.708 233.582 279.557 227.013 279.557 218.909C279.557 210.805 274.708 204.236 268.727 204.236C262.746 204.236 257.897 210.805 257.897 218.909C257.897 227.013 262.746 233.582 268.727 233.582Z" fill="#3F3D56"/>
<path opacity="0.1" d="M268.727 215.649C274.708 215.649 279.557 209.08 279.557 200.976C279.557 192.872 274.708 186.303 268.727 186.303C262.746 186.303 257.897 192.872 257.897 200.976C257.897 209.08 262.746 215.649 268.727 215.649Z" fill="#3F3D56"/>
<path opacity="0.1" d="M228.187 78.2411C226.703 76.2944 225.354 74.2409 224.152 72.096L252.606 67.2607L221.83 67.4971C218.884 60.8457 217.279 53.6421 217.116 46.3271C216.952 39.012 218.232 31.7394 220.878 24.954L262.17 47.1217L224.104 18.1491C227.643 11.711 232.431 6.10008 238.166 1.66909C243.902 -2.7619 250.461 -5.91716 257.432 -7.59837C264.402 -9.27957 271.634 -9.45036 278.671 -8.09999C285.709 -6.74962 292.4 -3.9073 298.325 0.2483C304.25 4.4039 309.28 9.78294 313.099 16.0473C316.918 22.3116 319.444 29.3257 320.517 36.6488C321.59 43.9719 321.188 51.4455 319.335 58.6C317.483 65.7544 314.22 72.4349 309.752 78.2215C312.059 81.2548 314.044 84.5367 315.671 88.0103L278.719 107.923L318.108 94.244C320.876 102.705 321.561 111.748 320.1 120.552C318.64 129.356 315.08 137.644 309.743 144.665C315.763 152.585 319.508 162.098 320.55 172.116C321.592 182.134 319.889 192.254 315.635 201.318C311.382 210.382 304.749 218.024 296.496 223.371C288.242 228.717 278.702 231.553 268.965 231.553C259.228 231.553 249.687 228.717 241.434 223.371C233.181 218.024 226.548 210.382 222.294 201.318C218.04 192.254 216.337 182.134 217.379 172.116C218.421 162.098 222.167 152.585 228.187 144.665C220.992 135.202 217.081 123.51 217.081 111.468C217.081 99.4266 220.992 87.7346 228.187 78.2707V78.2411Z" fill="#6C63FF"/>
<path opacity="0.1" d="M320.848 111.439C320.867 123.483 316.954 135.181 309.743 144.636C315.763 152.555 319.508 162.068 320.55 172.087C321.592 182.105 319.889 192.225 315.635 201.288C311.382 210.352 304.749 217.994 296.496 223.341C288.242 228.688 278.702 231.523 268.965 231.523C259.228 231.523 249.687 228.688 241.434 223.341C233.181 217.994 226.548 210.352 222.294 201.288C218.04 192.225 216.337 182.105 217.379 172.087C218.421 162.068 222.167 152.555 228.187 144.636C221.23 135.497 320.848 105.412 320.848 111.439Z" fill="black"/>
</g>
<path opacity="0.1" d="M184.83 55.325C182.449 54.8595 179.988 55.1371 177.759 56.1227C176.425 56.7395 174.981 57.0583 173.52 57.0583C172.059 57.0583 170.614 56.7395 169.28 56.1227C167.702 55.4052 165.991 55.052 164.267 55.0878C162.543 55.1235 160.847 55.5472 159.298 56.3295C158.416 56.8055 157.437 57.0586 156.443 57.0681C152.398 57.0681 149.029 52.8532 148.325 47.2891C149.132 46.6767 149.82 45.9115 150.352 45.034C152.722 41.0948 156.395 38.5343 160.525 38.5343C164.655 38.5343 168.281 41.0455 170.651 44.9552C171.358 46.1386 172.35 47.1125 173.529 47.782C174.708 48.4516 176.034 48.7941 177.379 48.7762H177.483C180.681 48.7565 183.469 51.4351 184.83 55.325Z" fill="#6C63FF"/>
<path opacity="0.1" d="M197.154 37.8646L190.616 42.1583L194.584 34.6838C193.463 33.7545 192.072 33.2413 190.635 33.2263H190.521C190.068 33.2347 189.616 33.1984 189.17 33.1179L186.952 34.5754L187.904 32.7831C186.332 32.2173 184.973 31.1524 184.021 29.7401L180.053 32.34L182.565 27.6326C181.51 26.2228 180.165 25.0734 178.628 24.2678C177.091 23.4621 175.399 23.0204 173.677 22.9746C169.547 22.9746 165.873 25.5153 163.504 29.4742C162.802 30.6579 161.809 31.6283 160.628 32.2872C159.446 32.9462 158.117 33.2701 156.776 33.2263H156.557C151.998 33.2263 148.306 38.5638 148.306 45.162C148.306 51.7601 151.998 57.0977 156.557 57.0977C157.553 57.0897 158.532 56.8329 159.412 56.3492C160.961 55.5712 162.656 55.1507 164.377 55.1167C166.099 55.0827 167.808 55.436 169.385 56.1522C170.727 56.7857 172.183 57.1211 173.658 57.137C175.11 57.1344 176.546 56.8191 177.874 56.2113C179.441 55.5094 181.135 55.1638 182.843 55.1978C184.55 55.2318 186.231 55.6446 187.771 56.4083C188.652 56.8859 189.631 57.1359 190.626 57.137C195.174 57.137 198.867 51.7896 198.867 45.2014C198.905 42.6451 198.316 40.1207 197.154 37.8646V37.8646Z" fill="#6C63FF"/>
<path opacity="0.1" d="M69.0438 132.543C71.4219 132.078 73.8798 132.356 76.105 133.34C77.4405 133.957 78.8867 134.276 80.3493 134.276C81.8119 134.276 83.2581 133.957 84.5936 133.34C86.1723 132.624 87.8824 132.27 89.6059 132.304C91.3294 132.338 93.0252 132.759 94.5764 133.537C95.4555 134.022 96.4352 134.279 97.4313 134.286C101.476 134.286 104.845 130.061 105.539 124.497C104.733 123.887 104.048 123.121 103.522 122.242C101.143 118.303 97.4694 115.752 93.3487 115.752C89.2281 115.752 85.5929 118.253 83.2138 122.173C82.507 123.355 81.517 124.328 80.3398 124.997C79.1626 125.667 77.8383 126.01 76.4952 125.994H76.3905C73.1834 126.013 70.3856 128.682 69.0438 132.543Z" fill="#6C63FF"/>
<path opacity="0.1" d="M56.7105 115.112L63.2578 119.406L59.2799 111.941C60.4045 111.009 61.798 110.492 63.2388 110.473H63.3435C63.7989 110.48 64.2542 110.447 64.7043 110.375L66.9216 111.823L65.97 110.04C67.5385 109.473 68.8939 108.408 69.8432 106.997L73.8115 109.597L71.3372 104.88C72.3928 103.471 73.738 102.323 75.2753 101.519C76.8127 100.715 78.5036 100.276 80.2256 100.232C84.3462 100.232 88.0291 102.772 90.3986 106.731C91.1002 107.913 92.0909 108.883 93.2706 109.542C94.4504 110.201 95.7773 110.525 97.1172 110.483H97.3456C101.894 110.483 105.587 115.831 105.587 122.419C105.587 129.007 101.894 134.355 97.3456 134.355C96.3504 134.35 95.3709 134.097 94.4907 133.616C92.941 132.834 91.2453 132.41 89.5214 132.374C87.7975 132.339 86.0867 132.692 84.508 133.409C83.1709 134.048 81.7173 134.384 80.2446 134.394C78.7893 134.393 77.3503 134.078 76.0193 133.468C74.4537 132.767 72.7607 132.421 71.0549 132.455C69.349 132.489 67.6701 132.902 66.1318 133.665C65.2508 134.143 64.2713 134.393 63.2768 134.394C58.7185 134.394 55.0261 129.057 55.0261 122.458C54.9817 119.902 55.5611 117.375 56.7105 115.112V115.112Z" fill="#6C63FF"/>
<path d="M250.741 282.743C248.257 277.987 251.074 272.157 254.319 267.912C257.564 263.668 261.504 259.246 261.418 253.84C261.304 246.06 253.329 241.471 246.953 237.354C242.227 234.288 237.87 230.652 233.973 226.521C232.333 224.941 230.98 223.07 229.976 220.997C228.663 217.954 228.701 214.497 228.777 211.149C229.062 200.06 229.592 188.978 230.366 177.902" stroke="#3F3D56" stroke-width="4" stroke-miterlimit="10"/>
<path d="M218.261 177.341C218.351 175.31 218.934 173.336 219.955 171.599C220.976 169.863 222.403 168.42 224.104 167.404L226.731 172.771L226.655 166.272C227.906 165.896 229.207 165.733 230.509 165.789C232.823 165.901 235.053 166.72 236.918 168.143C238.782 169.566 240.197 171.53 240.983 173.785C241.769 176.04 241.892 178.485 241.335 180.813C240.778 183.14 239.567 185.244 237.855 186.859C236.143 188.474 234.006 189.527 231.715 189.885C229.425 190.244 227.083 189.892 224.986 188.873C222.889 187.854 221.13 186.215 219.934 184.162C218.737 182.11 218.155 179.736 218.261 177.341V177.341Z" fill="#008D47"/>
<path d="M239.15 259.394C240.378 261.868 242.391 263.83 244.851 264.95C247.311 266.071 250.068 266.282 252.661 265.548C255.254 264.814 257.523 263.18 259.09 260.92C260.656 258.66 261.424 255.911 261.264 253.134C261.105 250.358 260.027 247.723 258.213 245.671C256.398 243.619 253.957 242.275 251.298 241.865C248.64 241.454 245.926 242.003 243.612 243.417C241.298 244.832 239.524 247.027 238.588 249.635L245.907 255.799L237.856 253.83C237.849 255.765 238.293 257.674 239.15 259.394V259.394Z" fill="#008D47"/>
<path d="M244.936 235.857C247.812 236 250.638 235.042 252.875 233.166C255.112 231.29 256.602 228.627 257.063 225.686C257.523 222.745 256.92 219.731 255.37 217.22C253.819 214.71 251.429 212.878 248.657 212.075L248.714 217.067L246.059 211.631C242.956 211.473 239.919 212.598 237.617 214.757C235.314 216.915 233.935 219.932 233.783 223.144C233.716 224.542 233.886 225.942 234.287 227.28C234.989 229.672 236.39 231.781 238.297 233.316C240.203 234.852 242.522 235.74 244.936 235.857V235.857Z" fill="#008D47"/>
<path d="M216.501 216.25C218.317 216.346 220.129 216.003 221.795 215.248C223.461 214.493 224.934 213.348 226.098 211.902C227.262 210.456 228.084 208.749 228.5 206.918C228.917 205.086 228.915 203.179 228.496 201.348C228.076 199.517 227.251 197.812 226.085 196.368C224.918 194.924 223.443 193.781 221.776 193.03C220.109 192.278 218.296 191.938 216.48 192.037C214.664 192.136 212.896 192.671 211.314 193.6L213.389 199.509L209.126 195.284C207.988 196.35 207.067 197.639 206.413 199.075C205.76 200.512 205.388 202.068 205.319 203.655C205.262 204.776 205.362 205.901 205.614 206.993C206.211 209.55 207.596 211.837 209.561 213.507C211.525 215.177 213.961 216.14 216.501 216.25Z" fill="#008D47"/>
<path opacity="0.1" d="M219.841 180.571C222.544 180.876 225.17 181.743 227.882 181.92C230.595 182.097 233.592 181.418 235.296 179.242C236.089 177.973 236.811 176.658 237.456 175.302C238.199 174.107 239.216 173.119 240.416 172.427C241.175 173.964 241.608 175.651 241.687 177.375C241.765 179.099 241.487 180.82 240.871 182.424C240.255 184.028 239.315 185.478 238.114 186.675C236.913 187.873 235.478 188.791 233.906 189.369C232.335 189.947 230.662 190.171 229 190.025C227.338 189.88 225.725 189.369 224.269 188.527C222.813 187.685 221.548 186.531 220.558 185.142C219.567 183.753 218.875 182.161 218.528 180.473C218.956 180.482 219.394 180.522 219.841 180.571Z" fill="black"/>
<path opacity="0.1" d="M216.501 216.25C218.52 216.346 220.528 215.901 222.332 214.956C224.135 214.012 225.672 212.602 226.794 210.862C227.915 209.121 228.583 207.111 228.732 205.025C228.881 202.939 228.506 200.849 227.645 198.957C226.713 199.606 225.912 200.435 225.284 201.399C224.585 202.78 223.809 204.118 222.962 205.408C221.145 207.623 218.023 208.362 215.197 208.214C212.371 208.066 209.639 207.229 206.823 206.983C206.432 206.983 206.033 206.924 205.643 206.914C206.224 209.481 207.599 211.782 209.559 213.467C211.518 215.152 213.956 216.129 216.501 216.25V216.25Z" fill="black"/>
<path opacity="0.1" d="M244.936 235.857C246.936 235.957 248.927 235.524 250.719 234.6C252.511 233.676 254.044 232.292 255.172 230.58C256.299 228.868 256.984 226.885 257.159 224.821C257.335 222.757 256.996 220.681 256.175 218.791C255.21 219.447 254.371 220.281 253.7 221.253C252.933 222.666 252.085 224.031 251.16 225.34C249.18 227.615 245.859 228.422 242.861 228.294C239.864 228.166 237.151 227.496 234.296 227.309C235.003 229.695 236.405 231.796 238.309 233.326C240.213 234.856 242.528 235.74 244.936 235.857V235.857Z" fill="black"/>
<path opacity="0.1" d="M239.15 259.394C240.525 262.137 242.861 264.233 245.679 265.254C248.498 266.275 251.587 266.143 254.315 264.886C257.043 263.628 259.204 261.34 260.356 258.489C261.509 255.638 261.565 252.439 260.514 249.546C259.545 250.196 258.678 250.996 257.945 251.919C256.831 253.318 256.041 254.874 254.804 256.223C252.406 258.655 248.543 259.66 245.098 259.748C243.11 259.749 241.124 259.631 239.15 259.394V259.394Z" fill="black"/>
<path d="M335.97 434.48C388.507 434.48 431.096 390.407 431.096 336.04C431.096 281.673 388.507 237.6 335.97 237.6C283.433 237.6 240.844 281.673 240.844 336.04C240.844 390.407 283.433 434.48 335.97 434.48Z" fill="#E9E9EB"/>
<path opacity="0.1" d="M334.771 237.61C315.945 237.601 297.54 243.369 281.883 254.187C266.226 265.004 254.021 280.384 246.812 298.38C239.604 316.377 237.715 336.182 241.385 355.29C245.056 374.398 254.12 391.949 267.432 405.725C280.744 419.501 297.705 428.881 316.169 432.679C334.634 436.477 353.772 434.523 371.163 427.063C388.554 419.603 403.416 406.973 413.869 390.771C424.323 374.569 429.897 355.522 429.888 336.04C429.875 309.939 419.85 284.911 402.015 266.454C384.18 247.998 359.994 237.623 334.771 237.61ZM334.771 421.392C318.458 421.392 302.512 416.387 288.948 407.008C275.385 397.629 264.813 384.299 258.57 368.703C252.328 353.107 250.694 335.946 253.877 319.389C257.059 302.832 264.915 287.624 276.45 275.687C287.984 263.751 302.681 255.622 318.68 252.328C334.679 249.035 351.263 250.725 366.334 257.185C381.405 263.645 394.287 274.585 403.35 288.621C412.412 302.657 417.25 319.159 417.25 336.04C417.25 358.677 408.56 380.387 393.092 396.393C377.624 412.4 356.646 421.392 334.771 421.392Z" fill="black" fill-opacity="0.6"/>
<path d="M110.212 360.965C162.749 360.965 205.338 316.892 205.338 262.526C205.338 208.159 162.749 164.086 110.212 164.086C57.6751 164.086 15.0857 208.159 15.0857 262.526C15.0857 316.892 57.6751 360.965 110.212 360.965Z" fill="#E9E9EB"/>
<path d="M110.212 215.423L72.2889 305.965L75.829 309.628L110.221 293.931L144.614 309.628L148.154 305.965L110.212 215.423Z" fill="#008D47"/>
<path opacity="0.1" d="M110.212 164.056C91.3881 164.046 72.9844 169.814 57.3285 180.629C41.6725 191.444 29.4677 206.821 22.2576 224.815C15.0476 242.809 13.1562 262.611 16.8228 281.718C20.4894 300.824 29.5491 318.376 42.8562 332.153C56.1632 345.931 73.1198 355.315 91.5811 359.119C110.042 362.923 129.179 360.975 146.571 353.523C163.963 346.071 178.828 333.449 189.287 317.253C199.746 301.057 205.328 282.015 205.328 262.535C205.328 236.426 195.309 211.384 177.472 192.917C159.636 174.45 135.443 164.069 110.212 164.056V164.056ZM110.212 347.838C93.897 347.838 77.9487 342.831 64.3841 333.45C50.8195 324.07 40.248 310.736 34.0068 295.138C27.7656 279.539 26.135 262.375 29.3213 245.817C32.5077 229.259 40.3677 214.05 51.9073 202.116C63.447 190.181 78.1477 182.056 94.1502 178.768C110.153 175.48 126.738 177.178 141.808 183.645C156.878 190.113 169.756 201.06 178.814 215.103C187.871 229.145 192.7 245.652 192.691 262.535C192.688 285.17 183.997 306.878 168.53 322.882C153.062 338.887 132.085 347.878 110.212 347.878V347.838Z" fill="black"/>
<path opacity="0.1" d="M678.172 94.2262C674.775 93.5623 671.263 93.96 668.085 95.3686C666.177 96.2484 664.111 96.703 662.023 96.703C659.934 96.703 657.869 96.2484 655.961 95.3686C653.703 94.3433 651.258 93.8378 648.793 93.8871C646.328 93.9364 643.903 94.5393 641.686 95.6542C640.423 96.3486 639.015 96.7137 637.585 96.7177C631.799 96.7177 626.993 90.6908 625.994 82.7435C627.132 81.8652 628.101 80.7727 628.849 79.5232C632.236 73.8705 637.48 70.2366 643.38 70.2366C649.28 70.2366 654.457 73.8213 657.845 79.4149C658.854 81.1049 660.269 82.4957 661.952 83.4518C663.634 84.4079 665.528 84.8968 667.447 84.8707H667.599C672.253 84.8214 676.24 88.6424 678.172 94.2262Z" fill="#6C63FF"/>
<path opacity="0.1" d="M695.787 69.2617L686.442 75.3871L692.152 64.7119C690.544 63.3874 688.554 62.6561 686.499 62.634H686.347C685.709 62.643 685.072 62.5936 684.443 62.4863L681.227 64.5642L682.588 62.0038C680.339 61.1983 678.396 59.674 677.04 57.651L671.33 61.3735L674.908 54.6375C671.596 50.5211 667.124 48 662.213 48C656.313 48 651.069 51.624 647.672 57.2768C646.67 58.967 645.255 60.3529 643.568 61.2938C641.882 62.2347 639.985 62.6971 638.07 62.634H637.756C631.247 62.634 625.974 70.2662 625.974 79.6808C625.974 89.0954 631.247 96.7374 637.756 96.7374C639.186 96.7276 640.592 96.3628 641.857 95.6738C644.074 94.5562 646.498 93.9508 648.963 93.8998C651.428 93.8488 653.874 94.3533 656.132 95.3784C658.038 96.2643 660.104 96.7223 662.194 96.7223C664.284 96.7223 666.35 96.2643 668.256 95.3784C670.496 94.3763 672.917 93.8832 675.357 93.9325C677.796 93.9818 680.197 94.5722 682.397 95.664C683.649 96.3417 685.039 96.6997 686.451 96.7079C692.961 96.7079 698.233 89.0659 698.233 79.6513C698.272 76.0307 697.431 72.458 695.787 69.2617V69.2617Z" fill="#6C63FF"/>
<path d="M540.679 468.339C543.163 463.573 540.346 457.743 537.11 453.498C533.875 449.254 529.916 444.832 530.001 439.426C530.125 431.656 538.1 427.057 544.466 422.94C549.194 419.872 553.554 416.236 557.456 412.108C559.088 410.518 560.437 408.645 561.444 406.573C562.766 403.54 562.728 400.073 562.643 396.725C562.37 385.636 561.84 374.554 561.053 363.478" stroke="#3F3D56" stroke-width="4" stroke-miterlimit="10"/>
<path d="M573.168 362.927C573.076 360.896 572.492 358.921 571.469 357.185C570.446 355.448 569.018 354.006 567.315 352.99L564.689 358.358L564.774 351.858C562.392 351.132 559.849 351.208 557.512 352.076C555.174 352.943 553.164 354.556 551.77 356.683C550.376 358.81 549.672 361.34 549.758 363.908C549.844 366.476 550.717 368.949 552.25 370.971C553.782 372.992 555.896 374.458 558.286 375.155C560.676 375.852 563.218 375.746 565.546 374.851C567.874 373.956 569.866 372.318 571.236 370.175C572.606 368.032 573.283 365.494 573.168 362.927V362.927Z" fill="#008D47"/>
<path d="M552.27 444.98C551.091 447.35 549.191 449.253 546.862 450.392C544.534 451.532 541.907 451.846 539.389 451.286C536.871 450.725 534.601 449.321 532.932 447.291C531.262 445.261 530.286 442.718 530.154 440.056C530.066 438.377 530.326 436.699 530.915 435.132C531.778 432.847 533.289 430.887 535.251 429.509C537.212 428.132 539.531 427.402 541.901 427.415C544.272 427.429 546.582 428.186 548.529 429.587C550.475 430.987 551.965 432.965 552.803 435.26L545.485 441.425L553.535 439.455C553.545 441.375 553.111 443.269 552.27 444.98V444.98Z" fill="#008D47"/>
<path d="M546.484 421.443C543.609 421.584 540.785 420.624 538.55 418.747C536.315 416.87 534.827 414.207 534.368 411.267C533.909 408.326 534.512 405.314 536.062 402.805C537.612 400.295 540.001 398.464 542.772 397.661L542.706 402.654L545.361 397.217C548.465 397.067 551.5 398.2 553.798 400.365C556.096 402.53 557.468 405.552 557.613 408.764C557.758 411.977 556.664 415.117 554.572 417.495C552.479 419.873 549.56 421.293 546.455 421.443H546.484Z" fill="#008D47"/>
<path d="M574.928 401.856C573.112 401.953 571.299 401.611 569.632 400.857C567.966 400.104 566.492 398.959 565.327 397.513C564.162 396.068 563.339 394.362 562.921 392.53C562.504 390.698 562.505 388.79 562.924 386.959C563.342 385.127 564.167 383.422 565.333 381.977C566.499 380.533 567.974 379.389 569.641 378.637C571.309 377.885 573.122 377.544 574.938 377.643C576.754 377.742 578.524 378.277 580.105 379.206L578.04 385.114L582.256 380.801C583.961 382.419 585.165 384.523 585.717 386.848C586.268 389.172 586.142 391.614 585.354 393.865C584.566 396.116 583.152 398.075 581.29 399.495C579.428 400.915 577.201 401.733 574.89 401.846L574.928 401.856Z" fill="#008D47"/>
<path opacity="0.1" d="M571.588 366.157C568.885 366.462 566.259 367.329 563.537 367.506C560.816 367.684 557.827 367.004 556.133 364.828C555.337 363.559 554.612 362.244 553.964 360.889C553.224 359.693 552.211 358.706 551.014 358.013C550.256 359.549 549.823 361.235 549.746 362.958C549.668 364.682 549.946 366.402 550.562 368.005C551.178 369.608 552.118 371.056 553.318 372.253C554.518 373.45 555.951 374.369 557.522 374.947C559.093 375.525 560.764 375.749 562.425 375.605C564.087 375.461 565.699 374.952 567.155 374.112C568.61 373.271 569.876 372.119 570.867 370.732C571.858 369.345 572.552 367.755 572.901 366.068C572.473 366.078 572.026 366.108 571.588 366.157Z" fill="black"/>
<path opacity="0.1" d="M574.928 401.856C572.908 401.955 570.898 401.511 569.093 400.568C567.288 399.624 565.75 398.213 564.628 396.472C563.506 394.731 562.839 392.72 562.691 390.633C562.543 388.546 562.92 386.455 563.785 384.563C564.713 385.212 565.512 386.042 566.135 387.005C566.835 388.386 567.61 389.724 568.457 391.013C570.284 393.229 573.406 393.968 576.232 393.82C579.058 393.672 581.79 392.835 584.607 392.589C584.997 392.589 585.387 392.53 585.787 392.52C585.204 395.086 583.828 397.386 581.869 399.071C579.91 400.755 577.473 401.733 574.928 401.856V401.856Z" fill="black"/>
<path opacity="0.1" d="M546.484 421.443C544.485 421.54 542.495 421.106 540.704 420.181C538.914 419.256 537.382 417.872 536.255 416.161C535.128 414.449 534.443 412.468 534.267 410.405C534.09 408.342 534.427 406.267 535.245 404.377C536.21 405.035 537.052 405.869 537.729 406.839C538.496 408.253 539.345 409.617 540.27 410.926C542.239 413.201 545.57 414.008 548.558 413.88C551.547 413.752 554.268 413.083 557.123 412.895C556.413 415.278 555.01 417.377 553.107 418.907C551.203 420.436 548.891 421.322 546.484 421.443Z" fill="black"/>
<path opacity="0.1" d="M552.27 444.98C551.091 447.35 549.191 449.253 546.862 450.392C544.534 451.532 541.907 451.846 539.389 451.285C536.871 450.725 534.601 449.321 532.932 447.291C531.262 445.261 530.286 442.718 530.154 440.056C530.066 438.377 530.326 436.699 530.915 435.132C531.88 435.788 532.746 436.587 533.484 437.505C534.598 438.904 535.331 440.46 536.625 441.809C539.013 444.241 542.887 445.246 546.322 445.335C548.31 445.341 550.296 445.222 552.27 444.98V444.98Z" fill="black"/>
<path d="M441.679 253.975C444.163 249.209 441.346 243.379 438.11 239.134C434.875 234.89 430.916 230.468 431.001 225.061C431.125 217.291 439.1 212.692 445.466 208.576C450.194 205.508 454.554 201.872 458.456 197.743C460.088 196.154 461.437 194.281 462.444 192.209C463.766 189.176 463.728 185.709 463.643 182.361C463.37 171.272 462.84 160.19 462.053 149.114" stroke="#3F3D56" stroke-width="4" stroke-miterlimit="10"/>
<path d="M474.168 148.563C474.076 146.531 473.492 144.557 472.469 142.82C471.446 141.084 470.018 139.641 468.315 138.626L465.689 143.993L465.774 137.494C463.392 136.768 460.849 136.844 458.512 137.711C456.174 138.579 454.164 140.192 452.77 142.319C451.376 144.446 450.672 146.976 450.758 149.544C450.844 152.112 451.717 154.585 453.25 156.607C454.782 158.628 456.896 160.093 459.286 160.791C461.676 161.488 464.218 161.381 466.546 160.486C468.874 159.591 470.866 157.954 472.236 155.811C473.606 153.668 474.283 151.13 474.168 148.563V148.563Z" fill="#008D47"/>
<path d="M453.27 230.616C452.091 232.986 450.191 234.888 447.862 236.028C445.534 237.168 442.907 237.482 440.389 236.921C437.871 236.361 435.601 234.957 433.932 232.927C432.262 230.897 431.286 228.354 431.154 225.692C431.066 224.013 431.326 222.334 431.915 220.768C432.778 218.483 434.289 216.522 436.251 215.145C438.212 213.767 440.531 213.037 442.901 213.051C445.272 213.065 447.582 213.822 449.529 215.222C451.475 216.623 452.965 218.601 453.803 220.896L446.485 227.061L454.535 225.091C454.545 227.011 454.111 228.905 453.27 230.616V230.616Z" fill="#008D47"/>
<path d="M447.484 207.079C444.609 207.219 441.785 206.259 439.55 204.382C437.315 202.505 435.827 199.843 435.368 196.902C434.909 193.962 435.512 190.95 437.062 188.44C438.612 185.931 441.001 184.1 443.772 183.296L443.706 188.289L446.361 182.853C449.465 182.703 452.5 183.835 454.798 186.001C457.096 188.166 458.468 191.187 458.613 194.4C458.758 197.612 457.664 200.753 455.572 203.131C453.479 205.509 450.56 206.929 447.455 207.079H447.484Z" fill="#008D47"/>
<path d="M475.928 187.492C474.112 187.589 472.299 187.247 470.632 186.493C468.966 185.739 467.492 184.594 466.327 183.149C465.162 181.703 464.339 179.997 463.921 178.165C463.504 176.333 463.505 174.426 463.924 172.595C464.342 170.763 465.167 169.057 466.333 167.613C467.499 166.169 468.974 165.025 470.641 164.273C472.309 163.52 474.122 163.18 475.938 163.279C477.754 163.377 479.524 163.912 481.105 164.841L479.04 170.75L483.256 166.437C484.961 168.054 486.165 170.158 486.717 172.483C487.268 174.808 487.142 177.25 486.354 179.501C485.566 181.751 484.152 183.71 482.29 185.131C480.428 186.551 478.201 187.369 475.89 187.482L475.928 187.492Z" fill="#008D47"/>
<path opacity="0.1" d="M472.588 151.793C469.885 152.098 467.259 152.965 464.537 153.142C461.816 153.319 458.827 152.64 457.133 150.463C456.337 149.195 455.612 147.88 454.964 146.524C454.224 145.329 453.211 144.341 452.014 143.649C451.256 145.185 450.823 146.871 450.746 148.594C450.668 150.317 450.946 152.038 451.562 153.641C452.178 155.243 453.118 156.692 454.318 157.889C455.518 159.086 456.951 160.004 458.522 160.582C460.093 161.16 461.764 161.385 463.425 161.241C465.087 161.097 466.699 160.588 468.155 159.747C469.61 158.907 470.876 157.755 471.867 156.368C472.858 154.981 473.552 153.391 473.901 151.704C473.473 151.714 473.026 151.744 472.588 151.793Z" fill="black"/>
<path opacity="0.1" d="M475.928 187.492C473.908 187.591 471.898 187.147 470.093 186.203C468.288 185.26 466.75 183.849 465.628 182.108C464.506 180.367 463.839 178.355 463.691 176.268C463.543 174.181 463.92 172.09 464.785 170.199C465.713 170.848 466.512 171.677 467.135 172.641C467.835 174.021 468.61 175.36 469.457 176.649C471.284 178.865 474.406 179.603 477.232 179.456C480.058 179.308 482.79 178.471 485.607 178.225C485.997 178.225 486.387 178.166 486.787 178.156C486.204 180.722 484.828 183.022 482.869 184.706C480.91 186.391 478.473 187.369 475.928 187.492V187.492Z" fill="black"/>
<path opacity="0.1" d="M447.484 207.079C445.485 207.176 443.495 206.741 441.704 205.817C439.914 204.892 438.382 203.508 437.255 201.796C436.128 200.085 435.443 198.104 435.267 196.041C435.09 193.978 435.427 191.903 436.245 190.013C437.21 190.67 438.052 191.505 438.729 192.475C439.496 193.888 440.345 195.253 441.27 196.562C443.239 198.836 446.57 199.644 449.558 199.516C452.547 199.388 455.268 198.718 458.123 198.531C457.413 200.914 456.01 203.013 454.107 204.542C452.203 206.072 449.891 206.957 447.484 207.079Z" fill="black"/>
<path opacity="0.1" d="M453.27 230.616C452.091 232.986 450.191 234.888 447.862 236.028C445.534 237.168 442.907 237.482 440.389 236.921C437.871 236.361 435.601 234.957 433.932 232.927C432.262 230.897 431.286 228.354 431.154 225.692C431.066 224.013 431.326 222.334 431.915 220.768C432.88 221.423 433.746 222.223 434.484 223.141C435.598 224.539 436.331 226.095 437.625 227.445C440.013 229.877 443.887 230.882 447.322 230.97C449.31 230.976 451.296 230.858 453.27 230.616V230.616Z" fill="black"/>
<path d="M650.517 318.533C703.054 318.533 745.644 274.459 745.644 220.093C745.644 165.726 703.054 121.653 650.517 121.653C597.981 121.653 555.391 165.726 555.391 220.093C555.391 274.459 597.981 318.533 650.517 318.533Z" fill="#E9E9EB"/>
<path d="M691.352 245.481C688.041 242.053 680.075 236.883 676.126 234.953C671.568 232.688 669.893 232.728 666.667 235.14C663.983 237.11 662.242 239.01 659.158 238.311C656.075 237.612 649.965 232.846 644.056 226.75C638.146 220.654 633.559 214.371 632.902 211.131C632.246 207.891 634.054 206.128 635.976 203.351C638.298 200.013 638.365 198.279 636.157 193.562C634.254 189.475 629.315 181.252 625.974 177.806C622.634 174.359 621.911 175.117 620.084 175.836C618.203 176.652 616.398 177.64 614.688 178.79C611.376 181.085 609.521 182.995 608.217 185.871C606.913 188.747 605.438 194.084 613.023 208.058C618.618 218.749 625.704 228.528 634.054 237.08V237.08C642.347 245.741 651.829 253.087 662.194 258.884C675.688 266.762 680.856 265.196 683.635 263.857C686.413 262.517 688.259 260.617 690.467 257.16C691.581 255.392 692.536 253.523 693.322 251.576C693.95 249.686 694.693 248.918 691.352 245.481Z" fill="#008D47"/>
<path opacity="0.1" d="M650.517 121.663C631.692 121.653 613.286 127.421 597.629 138.239C581.972 149.056 569.767 164.436 562.559 182.433C555.35 200.429 553.461 220.234 557.132 239.342C560.802 258.45 569.867 276.002 583.179 289.777C596.49 303.553 613.451 312.933 631.916 316.731C650.38 320.53 669.519 318.575 686.91 311.115C704.3 303.656 719.163 291.026 729.616 274.823C740.069 258.621 745.643 239.574 745.634 220.093C745.621 193.991 735.596 168.963 717.761 150.506C699.926 132.05 675.74 121.676 650.517 121.663V121.663ZM650.517 305.445C634.205 305.445 618.258 300.439 604.695 291.06C591.131 281.682 580.559 268.351 574.317 252.755C568.074 237.159 566.441 219.998 569.623 203.441C572.806 186.885 580.661 171.676 592.196 159.74C603.731 147.803 618.427 139.674 634.427 136.381C650.426 133.087 667.01 134.778 682.081 141.238C697.152 147.698 710.033 158.637 719.096 172.674C728.159 186.71 732.996 203.212 732.996 220.093C732.996 231.301 730.863 242.4 726.718 252.755C722.573 263.111 716.498 272.52 708.839 280.446C701.18 288.371 692.087 294.658 682.081 298.948C672.074 303.237 661.349 305.445 650.517 305.445Z" fill="black"/>
<path d="M659.272 420.075C658.41 417.895 657.525 415.722 656.617 413.555C655.87 411.441 654.772 409.478 653.372 407.755C652.841 407.135 652.193 406.632 651.469 406.278C650.672 405.973 649.834 405.801 648.985 405.766C647.691 405.597 646.384 405.56 645.084 405.657C644.579 405.5 644.008 405.293 643.447 405.056C646.262 404.291 648.766 402.61 650.589 400.26C652.412 397.911 653.458 395.018 653.572 392.008C653.572 391.811 653.572 391.604 653.572 391.407C653.58 389.564 653.236 387.738 652.562 386.032C651.887 384.327 650.895 382.775 649.641 381.467C648.387 380.158 646.896 379.118 645.254 378.406C643.611 377.693 641.849 377.323 640.068 377.315C637.561 377.31 635.104 378.037 632.979 379.412C630.172 378.754 627.232 379.099 624.639 380.392C622.047 381.685 619.954 383.85 618.704 386.533C617.128 388.093 615.882 389.976 615.047 392.061C614.211 394.146 613.804 396.389 613.851 398.645C613.851 398.852 613.851 399.069 613.851 399.266C614.098 406.918 618.875 413.053 624.909 413.673C624.264 413.973 623.672 414.383 623.158 414.885C621.311 416.726 621.007 419.651 620.807 422.31L620.664 424.28L617.467 425.461C617.365 425.499 617.275 425.565 617.207 425.651C617.139 425.738 617.095 425.842 617.081 425.953C617.066 426.064 617.081 426.177 617.124 426.279C617.167 426.382 617.236 426.47 617.324 426.535L620.379 428.79C620.379 428.977 620.379 429.164 620.379 429.351C620.379 429.538 620.379 429.775 620.436 429.991C619.914 430.467 619.51 431.065 619.256 431.734C618.958 432.768 618.865 433.853 618.98 434.925L619.094 437.673C619.079 439.741 619.352 441.801 619.903 443.788C620.303 445.01 622.035 447.954 623.281 447.974C622.13 453.39 621.825 464.814 621.825 464.814C621.683 464.961 622.082 465.099 622.777 465.217C623.462 470.654 625.699 485.898 629.667 492.605C630.291 494.791 630.79 497.014 631.161 499.262C631.161 499.262 632.293 513.748 633.788 518.052C635.063 521.715 636.071 530.755 636.347 533.375C636.089 533.444 635.853 533.585 635.667 533.783C635.481 533.981 635.351 534.228 635.291 534.498C634.539 536.842 629.667 540.406 629.667 540.406C628.173 541.179 626.763 542.113 625.461 543.193C623.929 544.621 623.986 545.911 630.79 545.104C643.923 543.538 646.168 539.195 646.168 539.195C646.168 539.195 645.959 538.466 645.645 537.521C645.244 536.05 644.665 534.637 643.922 533.316C643.732 533.129 643.542 533.444 643.313 533.936C642.323 527.653 642.022 521.273 642.419 514.92C642.419 514.92 642.79 508.263 640.915 503.565C640.498 501.106 640.498 498.59 640.915 496.13C641.667 492.998 637.918 477.724 637.918 477.724L635.767 466.478C636.06 466.862 636.265 467.31 636.366 467.788L636.424 468.014L636.481 468.339C636.502 468.454 636.555 468.56 636.633 468.645C638.098 474.947 642.114 492.408 642.114 494.968C642.114 498.1 645.864 505.929 645.864 505.929C645.864 505.929 647.358 518.849 649.984 523.931C651.983 527.801 652.03 533.474 651.935 535.975C651.935 535.975 651.488 539.195 650.736 539.973C650.139 540.742 649.66 541.603 649.318 542.524L649.233 542.711C649.233 542.711 648.11 545.065 648.862 545.458C651.721 546.619 654.816 547.022 657.864 546.63C657.864 546.63 659.368 544.661 659.368 543.893C659.336 543.423 659.279 542.957 659.196 542.494C658.92 540.643 658.407 537.728 658.397 537.698C658.711 536.438 657.445 532.932 657.445 532.932L657.065 521.971C657.761 514.55 656.864 507.061 654.438 500.04C654.438 500.04 652.535 492.999 652.944 491.039C653.353 489.079 652.192 468.329 652.192 468.329L652.078 468.034C651.977 466.566 652.015 465.092 652.192 463.632C652.563 458.934 651.069 449.146 650.689 448.762C650.378 447.71 650.199 446.621 650.156 445.522C650.241 444.704 650.498 442.311 650.85 439.337C654.55 439.206 658.241 438.878 661.909 438.352C662.263 438.352 662.604 438.211 662.86 437.958C663.011 437.722 663.087 437.444 663.079 437.161C663.517 431.262 661.433 425.53 659.272 420.075ZM651.726 432.493C652.116 429.686 652.535 426.968 652.954 424.949L653.011 425.127C653.731 427.156 654.335 429.228 654.819 431.331C653.82 431.804 652.785 432.192 651.726 432.493Z" fill="url(#paint0_linear)"/>
<path d="M622.577 464.193C622.577 464.193 624.823 485.1 629.686 493.225C630.311 495.385 630.81 497.582 631.18 499.803C631.18 499.803 632.303 514.122 633.797 518.377C635.291 522.631 636.414 534.251 636.414 534.251C636.414 534.251 641.648 540.436 643.523 535.414C642.345 528.778 641.968 522.016 642.4 515.284C642.4 515.284 642.771 508.706 640.906 504.058C640.489 501.628 640.489 499.141 640.906 496.711C641.648 493.609 637.908 478.522 637.908 478.522L634.92 463.425L622.577 464.193Z" fill="#FBBEBE"/>
<path opacity="0.1" d="M642.4 515.284C642.4 515.284 642.771 508.706 640.906 504.058C640.489 501.628 640.489 499.141 640.906 496.711C641.648 493.609 637.908 478.522 637.908 478.522L634.92 463.425L632.331 463.583L635.291 478.522C635.291 478.522 639.031 493.609 638.289 496.711C637.872 499.141 637.872 501.628 638.289 504.058C640.192 508.706 639.783 515.284 639.783 515.284C639.351 522.016 639.728 528.778 640.906 535.414C640.703 536.044 640.326 536.599 639.821 537.009C641.21 537.659 642.676 537.629 643.523 535.414C642.345 528.778 641.968 522.016 642.4 515.284V515.284Z" fill="black"/>
<path d="M639.964 379.245C637.468 379.24 635.022 379.96 632.902 381.323C630.104 380.654 627.17 380.986 624.577 382.265C621.985 383.544 619.888 385.694 618.628 388.364C617.058 389.9 615.816 391.759 614.982 393.822C614.148 395.884 613.74 398.104 613.784 400.339C613.784 408.572 619.142 415.239 625.746 415.239C630.504 415.239 634.672 411.733 636.585 406.662C637.685 406.963 638.817 407.115 639.954 407.115C643.525 407.115 646.95 405.647 649.476 403.033C652.001 400.42 653.42 396.876 653.42 393.18C653.42 389.484 652.001 385.94 649.476 383.326C646.95 380.713 643.525 379.245 639.954 379.245H639.964Z" fill="#3F3D56"/>
<path d="M651.003 466.133L652.126 469.226C652.126 469.226 653.249 489.739 652.868 491.679C652.487 493.619 654.372 500.542 654.372 500.542C656.79 507.473 657.684 514.874 656.989 522.207L657.36 533.04C657.36 533.04 658.854 537.294 658.111 538.072C657.369 538.85 651.726 537.383 651.726 537.383C651.726 537.383 652.478 529.259 649.823 524.226C647.168 519.194 645.712 506.421 645.712 506.421C645.712 506.421 641.972 498.681 641.972 495.588C641.972 492.496 635.986 467.335 635.986 467.335L651.003 466.133Z" fill="#FBBEBE"/>
<path d="M621.825 465.749C621.825 465.749 622.206 451.814 623.729 447.56C624.503 445.572 625.062 443.501 625.394 441.385C625.394 441.385 648.034 445.62 649.908 444.074C649.908 444.074 650.279 449.49 650.66 449.874C651.041 450.258 652.563 459.939 652.154 464.587C651.745 469.235 652.154 469.226 652.154 469.226C652.154 469.226 636.814 471.55 636.443 469.226C636.071 466.901 634.949 466.911 634.949 466.911C634.949 466.911 621.083 466.478 621.825 465.749Z" fill="#3F3D56"/>
<g opacity="0.1">
<path opacity="0.1" d="M634.168 465.749C634.168 465.749 624.709 465.483 621.854 464.952C621.854 465.454 621.854 465.749 621.854 465.749C621.112 466.517 634.948 466.911 634.948 466.911C635.137 466.929 635.316 467.005 635.462 467.128C634.958 465.749 634.168 465.749 634.168 465.749Z" fill="black"/>
<path opacity="0.1" d="M650.632 449.874C650.251 449.49 649.88 444.074 649.88 444.074C649.686 444.199 649.468 444.279 649.242 444.31C649.375 445.945 649.632 448.456 649.88 448.712C650.127 448.968 651.783 458.777 651.374 463.425C650.965 468.073 651.374 468.064 651.374 468.064C651.374 468.064 639.24 469.905 636.3 468.674C636.3 468.842 636.385 469.029 636.414 469.226C636.785 471.55 652.126 469.226 652.126 469.226C652.126 469.226 651.745 469.226 652.126 464.587C652.506 459.949 651.003 450.268 650.632 449.874Z" fill="black"/>
</g>
<path d="M638.308 403.629C638.63 404.374 639.119 405.029 639.735 405.539C640.132 405.844 640.591 406.049 641.077 406.14C640.24 406.642 639.326 407.016 638.489 407.518C637.171 408.435 635.901 409.421 634.682 410.473C633.436 411.51 631.91 412.122 630.314 412.226C630.874 411.444 631.225 410.524 631.332 409.558C631.439 408.591 631.298 407.613 630.923 406.721C630.58 406.136 630.354 405.487 630.257 404.81C630.257 403.697 631.209 402.841 632.094 402.25C632.807 401.748 633.54 401.265 634.282 400.782C634.863 400.408 635.738 399.62 636.471 399.65C637.204 399.68 637.29 400.349 637.423 401.039C637.611 401.937 637.909 402.807 638.308 403.629V403.629Z" fill="#BE6F72"/>
<path opacity="0.1" d="M638.308 403.629C638.63 404.374 639.119 405.029 639.735 405.539C640.132 405.844 640.591 406.049 641.077 406.14C640.24 406.642 639.326 407.016 638.489 407.518C637.171 408.435 635.901 409.421 634.682 410.473C633.436 411.51 631.91 412.122 630.314 412.226C630.874 411.444 631.225 410.524 631.332 409.558C631.439 408.591 631.298 407.613 630.923 406.721C630.58 406.136 630.354 405.487 630.257 404.81C630.257 403.697 631.209 402.841 632.094 402.25C632.807 401.748 633.54 401.265 634.282 400.782C634.863 400.408 635.738 399.62 636.471 399.65C637.204 399.68 637.29 400.349 637.423 401.039C637.611 401.937 637.909 402.807 638.308 403.629V403.629Z" fill="black"/>
<path d="M647.072 426.466C651.824 426.466 655.675 422.48 655.675 417.563C655.675 412.647 651.824 408.661 647.072 408.661C642.321 408.661 638.47 412.647 638.47 417.563C638.47 422.48 642.321 426.466 647.072 426.466Z" fill="#BE6F72"/>
<path d="M629.867 407.686C634.513 407.686 638.279 403.788 638.279 398.98C638.279 394.172 634.513 390.275 629.867 390.275C625.221 390.275 621.454 394.172 621.454 398.98C621.454 403.788 625.221 407.686 629.867 407.686Z" fill="#FBBEBE"/>
<path d="M623.082 416.391C621.235 418.213 620.931 421.099 620.74 423.728L620.455 427.579C620.352 428.616 620.33 429.66 620.388 430.7C620.388 431.341 620.541 431.991 620.598 432.67C620.655 433.35 620.674 434.206 620.683 434.984V440.676C620.593 441.851 620.803 443.03 621.292 444.094C621.554 444.608 621.992 445.003 622.52 445.2C623.049 445.397 623.629 445.381 624.147 445.157C624.739 444.686 625.155 444.018 625.327 443.266C626.256 440.957 626.895 438.535 627.231 436.058C627.307 435.201 627.316 434.344 627.392 433.487C627.469 432.631 627.611 431.735 627.735 430.868C628.268 427.244 628.506 423.58 628.744 419.927C628.81 418.844 629.752 414.579 628.382 414.107C627.716 413.88 626.336 414.589 625.699 414.826C624.733 415.16 623.843 415.692 623.082 416.391V416.391Z" fill="#FBBEBE"/>
<path opacity="0.1" d="M623.082 416.391C621.235 418.213 620.931 421.099 620.74 423.728L620.455 427.579C620.352 428.616 620.33 429.66 620.388 430.7C620.388 431.341 620.541 431.991 620.598 432.67C620.655 433.35 620.674 434.206 620.683 434.984V440.676C620.593 441.851 620.803 443.03 621.292 444.094C621.554 444.608 621.992 445.003 622.52 445.2C623.049 445.397 623.629 445.381 624.147 445.157C624.739 444.686 625.155 444.018 625.327 443.266C626.256 440.957 626.895 438.535 627.231 436.058C627.307 435.201 627.316 434.344 627.392 433.487C627.469 432.631 627.611 431.735 627.735 430.868C628.268 427.244 628.506 423.58 628.744 419.927C628.81 418.844 629.752 414.579 628.382 414.107C627.716 413.88 626.336 414.589 625.699 414.826C624.733 415.16 623.843 415.692 623.082 416.391V416.391Z" fill="black"/>
<path d="M640.525 404.594C640.525 404.594 634.168 409.626 630.428 410.788C630.428 410.788 628.211 413.407 627.83 414.038C627.45 414.668 626.688 421.621 625.927 423.177C625.166 424.733 623.31 428.209 625.927 431.685C625.927 431.685 626.669 435.171 626.298 436.334C625.927 437.496 624.566 441.75 625.803 441.947C627.04 442.144 630.79 444.842 634.149 444.074C637.508 443.306 650.051 447.028 650.051 447.028C650.051 447.028 652.126 427.086 653.629 423.561L650.26 422.399C650.26 422.399 640.915 416.598 646.52 407.696C646.511 407.696 641.258 406.534 640.525 404.594Z" fill="#FF6F61"/>
<path d="M617.315 427.904L625.042 433.566C625.14 433.641 625.258 433.681 625.38 433.681C625.501 433.681 625.62 433.641 625.718 433.566L627.811 431.941C627.876 431.884 627.927 431.813 627.963 431.733C627.998 431.653 628.016 431.566 628.016 431.478C628.016 431.391 627.998 431.304 627.963 431.224C627.927 431.144 627.876 431.073 627.811 431.016L621.863 425.55C621.786 425.477 621.691 425.428 621.589 425.407C621.487 425.386 621.381 425.395 621.283 425.432L617.467 426.85C617.366 426.886 617.277 426.949 617.21 427.034C617.142 427.118 617.098 427.22 617.082 427.329C617.066 427.438 617.08 427.549 617.121 427.65C617.162 427.751 617.229 427.839 617.315 427.904V427.904Z" fill="#3F3D56"/>
<path d="M619.913 444.96C619.366 442.998 619.094 440.965 619.104 438.924L618.989 436.196C618.875 435.137 618.968 434.065 619.265 433.044C619.559 432.345 619.999 431.721 620.553 431.218C621.108 430.716 621.763 430.347 622.472 430.139C623.893 429.731 625.378 429.621 626.84 429.814C627.038 429.815 627.231 429.869 627.402 429.972C627.551 430.115 627.657 430.299 627.706 430.504C627.923 430.94 628.05 431.418 628.079 431.908C628.109 432.398 628.04 432.889 627.878 433.35C627.657 433.725 627.358 434.045 627.002 434.285C625.965 435.053 624.756 435.565 623.776 436.402C623.577 436.542 623.424 436.741 623.338 436.974C623.291 437.178 623.291 437.39 623.338 437.594C623.46 438.136 623.626 438.666 623.833 439.18C623.917 439.438 624.065 439.668 624.262 439.849C624.442 440.007 624.68 440.066 624.871 440.214C625.28 440.558 626.136 441.011 626.089 441.553C625.946 443.522 624.804 445.728 624.357 447.678C623.5 451.489 620.465 446.625 619.913 444.96Z" fill="#FBBEBE"/>
<g opacity="0.1">
<path opacity="0.1" d="M631.932 444.074H631.722C632.53 444.237 633.36 444.237 634.168 444.074H634.406C633.586 443.95 632.752 443.95 631.932 444.074Z" fill="black"/>
<path opacity="0.1" d="M651.564 422.98C650.222 426.101 648.243 443.01 647.891 446.369C649.204 446.723 650.07 446.979 650.07 446.979C650.07 446.979 652.126 427.086 653.629 423.561L651.564 422.98Z" fill="black"/>
</g>
<path d="M647.367 417.839C647.437 418.228 647.582 418.598 647.793 418.928C648.004 419.258 648.277 419.541 648.595 419.759C649.389 420.448 650.119 421.213 650.774 422.044C651.715 423.413 652.444 424.924 652.935 426.525C653.649 428.529 654.249 430.574 654.733 432.65C649.975 434.935 644.57 434.827 639.507 436.333C637.327 436.928 635.35 438.139 633.797 439.83C633.023 440.68 632.434 441.692 632.071 442.798C631.708 443.904 631.58 445.078 631.694 446.241C631.701 446.376 631.74 446.508 631.808 446.625C631.891 446.721 631.994 446.796 632.11 446.844C632.225 446.892 632.35 446.911 632.474 446.9C633.739 446.898 634.968 446.462 635.967 445.659C636.954 444.861 637.851 443.949 638.641 442.941C639.131 442.281 639.79 441.776 640.544 441.484C643.294 440.617 646.254 440.667 649.109 440.617C653.379 440.531 657.64 440.182 661.87 439.573C662.025 439.592 662.181 439.575 662.328 439.522C662.475 439.47 662.609 439.383 662.719 439.269C662.829 439.156 662.912 439.018 662.963 438.866C663.014 438.713 663.031 438.551 663.012 438.392C663.431 432.581 661.347 426.909 659.206 421.522C658.349 419.362 657.468 417.212 656.56 415.072C655.813 412.981 654.718 411.041 653.325 409.34C652.796 408.722 652.147 408.226 651.421 407.883C650.603 407.577 649.741 407.411 648.871 407.39C647.486 407.197 646.084 407.171 644.693 407.312C644.471 408.037 644.337 408.788 644.294 409.547C644.37 412.206 645.493 414.698 646.597 417.1C646.739 417.465 647.149 417.485 647.367 417.839Z" fill="#FBBEBE"/>
<path opacity="0.1" d="M632.132 422.822C631.488 423.962 631.159 425.264 631.18 426.584C631.182 427.106 631.263 427.624 631.418 428.12C631.678 428.817 632.085 429.444 632.611 429.955C633.136 430.466 633.766 430.849 634.454 431.075" stroke="black" stroke-miterlimit="10"/>
<path d="M636.976 390.472C636.507 390.47 636.041 390.547 635.596 390.698C634.349 388.729 631.418 387.37 627.982 387.37C623.434 387.37 619.751 389.802 619.751 392.796C619.751 395.79 623.434 398.212 627.982 398.212C629.686 398.231 631.372 397.861 632.922 397.129C633.27 397.875 633.805 398.511 634.472 398.97C635.138 399.43 635.911 399.696 636.711 399.741C637.51 399.787 638.307 399.61 639.018 399.229C639.729 398.848 640.329 398.277 640.754 397.575C641.18 396.873 641.416 396.066 641.438 395.237C641.459 394.409 641.267 393.59 640.879 392.865C640.491 392.139 639.923 391.535 639.233 391.114C638.543 390.693 637.757 390.472 636.956 390.472H636.976Z" fill="#3F3D56"/>
<path opacity="0.1" d="M637.347 398.596C636.503 398.596 635.676 398.35 634.962 397.884C634.248 397.419 633.676 396.754 633.312 395.967C631.762 396.699 630.076 397.069 628.373 397.05C623.833 397.05 620.15 394.627 620.15 391.634C620.136 391.453 620.136 391.272 620.15 391.092C619.88 391.617 619.736 392.201 619.732 392.796C619.732 395.75 623.415 398.212 627.963 398.212C629.667 398.231 631.353 397.861 632.902 397.129C633.312 398.008 633.98 398.731 634.81 399.195C635.64 399.659 636.59 399.84 637.526 399.712C638.461 399.585 639.334 399.155 640.019 398.484C640.705 397.813 641.168 396.936 641.344 395.977C640.982 396.757 640.415 397.416 639.708 397.88C639.001 398.343 638.183 398.591 637.347 398.596V398.596Z" fill="black"/>
<path opacity="0.1" d="M618.637 390.649C619.897 387.978 621.995 385.829 624.587 384.55C627.179 383.271 630.114 382.939 632.912 383.608C634.87 382.357 637.105 381.646 639.404 381.544C641.703 381.442 643.989 381.952 646.044 383.024C648.098 384.097 649.852 385.697 651.139 387.672C652.425 389.646 653.201 391.929 653.391 394.303C653.391 393.918 653.391 393.534 653.391 393.14C653.386 390.664 652.743 388.233 651.527 386.099C650.312 383.966 648.569 382.206 646.477 381.002C644.385 379.798 642.021 379.193 639.629 379.249C637.236 379.306 634.901 380.021 632.864 381.323C630.066 380.654 627.132 380.986 624.539 382.265C621.947 383.544 619.85 385.694 618.59 388.364C617.02 389.9 615.778 391.759 614.944 393.822C614.11 395.884 613.702 398.104 613.746 400.339C613.746 400.733 613.746 401.117 613.746 401.501C613.933 397.359 615.69 393.459 618.637 390.649Z" fill="black"/>
<path d="M704.437 393.603C706.921 388.847 704.104 383.007 700.859 378.762C697.614 374.518 693.674 370.106 693.76 364.69C693.874 356.92 701.849 352.331 708.225 348.204C712.952 345.139 717.309 341.502 721.205 337.372C722.843 335.789 724.196 333.918 725.202 331.847C726.516 328.804 726.477 325.347 726.401 321.999C726.122 310.904 725.592 299.821 724.812 288.752" stroke="#3F3D56" stroke-width="4" stroke-miterlimit="10"/>
<path d="M736.917 288.162C736.826 286.132 736.243 284.16 735.222 282.425C734.201 280.69 732.775 279.249 731.074 278.235L728.447 283.602L728.523 277.102C727.274 276.716 725.971 276.553 724.669 276.62C722.355 276.731 720.124 277.551 718.26 278.975C716.395 280.398 714.981 282.362 714.195 284.618C713.409 286.873 713.287 289.32 713.845 291.647C714.402 293.974 715.614 296.078 717.328 297.693C719.041 299.307 721.178 300.359 723.469 300.717C725.76 301.074 728.103 300.72 730.199 299.7C732.296 298.68 734.054 297.039 735.249 294.985C736.445 292.931 737.025 290.557 736.917 288.162V288.162Z" fill="#008D47"/>
<path d="M716.028 370.224C714.8 372.698 712.787 374.658 710.327 375.778C707.867 376.898 705.11 377.108 702.518 376.374C699.926 375.64 697.656 374.006 696.09 371.746C694.524 369.486 693.756 366.738 693.916 363.962C694.076 361.185 695.153 358.551 696.966 356.499C698.78 354.447 701.221 353.103 703.879 352.692C706.537 352.281 709.25 352.828 711.564 354.241C713.879 355.655 715.653 357.849 716.59 360.455L709.272 366.62L717.323 364.65C717.331 366.589 716.887 368.501 716.028 370.224V370.224Z" fill="#008D47"/>
<path d="M710.242 346.678C707.366 346.821 704.54 345.863 702.303 343.987C700.067 342.111 698.576 339.448 698.116 336.507C697.655 333.565 698.258 330.552 699.809 328.041C701.359 325.53 703.749 323.698 706.522 322.895L706.464 327.888L709.119 322.462C712.223 322.315 715.257 323.449 717.553 325.615C719.85 327.781 721.222 330.802 721.367 334.013C721.44 335.604 721.209 337.193 720.688 338.691C720.167 340.189 719.365 341.566 718.33 342.743C717.294 343.92 716.044 344.875 714.651 345.552C713.259 346.228 711.751 346.614 710.214 346.688L710.242 346.678Z" fill="#008D47"/>
<path opacity="0.1" d="M735.347 291.392C732.644 291.707 730.008 292.573 727.296 292.751C724.584 292.928 721.586 292.248 719.883 290.062C719.087 288.795 718.365 287.48 717.722 286.123C716.98 284.93 715.967 283.943 714.772 283.247C714.013 284.784 713.579 286.471 713.501 288.195C713.422 289.919 713.7 291.641 714.317 293.245C714.933 294.849 715.873 296.298 717.074 297.496C718.275 298.694 719.71 299.612 721.281 300.19C722.853 300.768 724.526 300.991 726.188 300.846C727.85 300.701 729.463 300.19 730.919 299.348C732.375 298.506 733.64 297.351 734.63 295.962C735.62 294.573 736.312 292.981 736.66 291.293C736.222 291.313 735.785 291.342 735.347 291.392Z" fill="black"/>
<path opacity="0.1" d="M710.242 346.678C708.24 346.779 706.246 346.347 704.452 345.422C702.657 344.497 701.122 343.11 699.994 341.395C698.866 339.68 698.183 337.694 698.009 335.627C697.836 333.561 698.178 331.482 699.004 329.592C699.964 330.253 700.802 331.087 701.478 332.054C702.429 333.383 702.953 334.92 704.019 336.141C705.998 338.425 709.319 339.223 712.317 339.154C715.315 339.085 718.027 338.347 720.882 338.12C720.175 340.506 718.774 342.609 716.87 344.141C714.966 345.672 712.651 346.558 710.242 346.678V346.678Z" fill="black"/>
<path opacity="0.1" d="M716.028 370.224C714.631 372.929 712.296 374.986 709.493 375.981C706.689 376.976 703.625 376.836 700.918 375.588C698.211 374.34 696.061 372.077 694.9 369.255C693.74 366.433 693.655 363.26 694.664 360.376C695.631 361.029 696.497 361.829 697.233 362.75C698.356 364.158 699.089 365.704 700.374 367.063C702.772 369.496 706.636 370.49 710.081 370.589C712.068 370.587 714.054 370.465 716.028 370.224V370.224Z" fill="black"/>
<path d="M389.397 310.661L360.914 340.648C360.864 340.697 360.824 340.757 360.797 340.823C360.77 340.889 360.756 340.96 360.756 341.032C360.756 341.104 360.77 341.175 360.797 341.241C360.824 341.307 360.864 341.366 360.914 341.416L380.899 363.406C381.377 363.905 381.702 364.538 381.833 365.227C381.965 365.916 381.897 366.63 381.638 367.279C381.378 367.928 380.94 368.484 380.376 368.876C379.813 369.268 379.151 369.479 378.472 369.483C377.559 369.481 376.683 369.105 376.036 368.439L356.156 346.527C356.055 346.424 355.918 346.366 355.775 346.366C355.633 346.366 355.496 346.424 355.395 346.527L350.551 351.589C348.568 353.688 346.199 355.355 343.584 356.493C340.97 357.631 338.161 358.217 335.325 358.217C332.434 358.203 329.576 357.593 326.915 356.423C324.255 355.253 321.847 353.546 319.832 351.402L315.178 346.478C315.077 346.374 314.94 346.316 314.798 346.316C314.655 346.316 314.519 346.374 314.417 346.478L294.585 368.34C294.266 368.671 293.887 368.933 293.47 369.113C293.052 369.292 292.605 369.384 292.153 369.384C291.702 369.384 291.254 369.292 290.837 369.113C290.42 368.933 290.041 368.671 289.722 368.34C289.401 368.011 289.146 367.619 288.973 367.187C288.799 366.755 288.71 366.292 288.71 365.824C288.71 365.356 288.799 364.893 288.973 364.461C289.146 364.029 289.401 363.637 289.722 363.308L309.63 341.367C309.719 341.26 309.767 341.123 309.767 340.983C309.767 340.842 309.719 340.706 309.63 340.599L281.148 310.612C281.074 310.535 280.981 310.484 280.879 310.462C280.777 310.441 280.672 310.452 280.576 310.493C280.48 310.534 280.398 310.604 280.341 310.694C280.283 310.783 280.253 310.888 280.253 310.996V370.999C280.261 373.319 281.154 375.541 282.739 377.181C284.324 378.821 286.472 379.746 288.713 379.754H381.851C384.092 379.746 386.239 378.821 387.824 377.181C389.409 375.541 390.303 373.319 390.311 370.999V311.045C390.315 310.933 390.287 310.823 390.228 310.729C390.17 310.635 390.085 310.562 389.985 310.519C389.885 310.477 389.774 310.468 389.669 310.494C389.564 310.519 389.469 310.577 389.397 310.661V310.661Z" fill="#008D47"/>
<path d="M335.296 351.096C337.227 351.116 339.142 350.734 340.927 349.973C342.712 349.211 344.331 348.086 345.688 346.665L387.17 302.97C385.698 301.707 383.848 301.011 381.936 301H288.732C286.819 301.006 284.968 301.703 283.498 302.97L324.99 346.665C326.335 348.078 327.939 349.199 329.71 349.96C331.48 350.721 333.379 351.108 335.296 351.096V351.096Z" fill="#008D47"/>
<path d="M266.702 375.135C266.714 373.625 266.384 372.132 265.737 370.778C265.091 369.423 264.147 368.244 262.981 367.336C262.967 364.665 262.041 362.086 260.368 360.054C258.694 358.021 256.381 356.666 253.836 356.227C253.442 354.286 252.563 352.487 251.285 351.009C250.007 349.531 248.376 348.427 246.555 347.807V347.807C246.113 347.664 245.662 347.556 245.204 347.482H245.071H244.833H244.643H244.433H244.176H243.596C241.067 347.543 238.641 348.527 236.746 350.261C234.851 351.995 233.61 354.366 233.242 356.956C229.902 356.158 226.847 357.192 226.285 359.379C226.145 359.959 226.178 360.571 226.381 361.131C226.952 362.825 228.807 364.45 231.291 365.248L231.615 365.346L232.1 365.474H232.205C231.674 366.642 231.401 367.917 231.405 369.207C231.398 370.79 231.812 372.345 232.603 373.7C233.393 375.055 234.53 376.158 235.888 376.888L235.669 377.026C235.359 377.317 235.113 377.673 234.945 378.07C234.345 379.169 233.875 380.34 233.547 381.556C233.309 382.6 233.271 383.683 232.976 384.717C232.424 386.618 231.015 388.223 230.853 390.203C230.777 391.089 230.92 392.172 230.311 392.743C230.161 392.878 229.998 392.997 229.826 393.098C229.404 393.406 229.045 393.798 228.769 394.25C228.587 394.66 228.335 395.034 228.027 395.353C227.475 395.776 226.571 395.737 226.305 396.397C226.038 397.057 226.733 397.835 226.571 398.554C226.409 399.273 225.819 399.41 225.391 399.814C224.893 400.369 224.542 401.047 224.373 401.784C223.472 401.962 222.545 401.932 221.657 401.697C220.769 401.462 219.941 401.028 219.234 400.425C219.476 401.061 219.655 401.721 219.767 402.394C218.939 401.74 217.999 401.252 216.997 400.957C215.87 400.426 214.865 399.654 214.047 398.691L215.627 398.465L208.652 387.445L206.586 387.002L208.433 390.675C208.278 390.748 208.142 390.856 208.033 390.99C207.924 391.125 207.846 391.283 207.805 391.453C207.706 391.862 207.684 392.286 207.738 392.704C207.833 393.699 207.992 394.686 208.214 395.658L208.747 398.238C208.794 398.475 208.851 398.721 208.918 398.957C208.222 398.922 207.525 399.002 206.853 399.194C205.47 398.661 204.028 398.308 202.561 398.14C202.247 398.074 201.923 398.074 201.609 398.14C201.254 398.314 200.944 398.574 200.705 398.898C199.504 400.341 198.436 401.897 197.517 403.547C193.711 410.302 188.753 416.201 184.061 422.307C180.826 423.666 177.561 424.956 174.297 426.246L167.274 429.023C165.905 429.666 164.419 430.002 162.916 430.008C162.249 430.008 161.422 429.86 161.012 430.451C160.829 430.759 160.685 431.09 160.584 431.436L159.861 431.515C159.528 430.332 158.953 429.237 158.176 428.304C158.005 428.335 157.844 428.408 157.706 428.518C157.568 428.628 157.459 428.771 157.387 428.934C157.215 429.259 157.111 429.614 156.911 429.919C156.54 430.49 155.883 430.766 155.417 431.249C154.95 431.731 154.655 432.48 154.141 432.972C153.441 433.508 152.618 433.848 151.753 433.957C150.449 434.272 149.191 434.765 148.013 435.424C147.582 435.704 147.118 435.925 146.633 436.084C146.097 436.192 145.548 436.212 145.006 436.143L141.294 435.858C140.961 435.815 140.623 435.831 140.295 435.907C139.922 436.064 139.608 436.339 139.396 436.693C139.184 437.047 139.085 437.461 139.115 437.876C139.163 438.294 139.292 438.696 139.495 439.06C139.698 439.424 139.97 439.742 140.295 439.994C140.937 440.484 141.65 440.867 142.408 441.126C145.62 442.42 148.93 443.435 152.305 444.159V444.937C154.666 446.169 157.274 446.81 159.918 446.808C160.114 446.822 160.31 446.785 160.489 446.7C160.732 446.512 160.901 446.239 160.965 445.932C161.754 443.489 162.253 440.956 162.449 438.389V438.389C162.914 438.356 163.369 438.236 163.791 438.034C165.066 437.67 166.342 438.576 167.664 438.723C169.292 438.91 170.795 437.926 172.337 437.325L173.003 437.098C172.564 437.683 172.045 438.197 171.461 438.625C170.824 439.098 170.11 439.452 169.491 439.944C168.968 440.435 168.408 440.883 167.817 441.284C167.4 441.483 166.97 441.654 166.532 441.796C165.883 442.045 165.266 442.376 164.695 442.781C164.189 443.093 163.762 443.525 163.449 444.041C163.292 444.305 163.201 444.605 163.183 444.914C163.164 445.223 163.22 445.532 163.344 445.814C163.475 446.044 163.653 446.242 163.865 446.395C164.077 446.548 164.318 446.652 164.571 446.7C165.073 446.779 165.583 446.779 166.085 446.7C168.102 446.543 170.11 446.355 172.118 446.168C172.967 446.113 173.81 445.988 174.64 445.794C175.078 445.686 175.515 445.538 175.953 445.41C176.704 445.214 177.473 445.095 178.247 445.056C178.471 445.038 178.696 445.061 178.913 445.124C179.379 445.282 179.712 445.774 180.188 445.873C180.51 445.915 180.838 445.871 181.14 445.745C182.606 445.418 184.102 445.253 185.603 445.252C186.259 445.252 187.03 445.085 187.335 444.455C187.639 443.825 187.087 442.81 186.84 441.973C186.713 441.438 186.643 440.89 186.631 440.338C186.516 438.982 186.14 437.663 185.527 436.458C185.196 435.897 184.918 435.303 184.699 434.686C187.577 433.554 190.33 432.108 192.911 430.372C194.326 429.312 195.911 428.522 197.593 428.038C199.58 427.793 201.595 428.036 203.475 428.747C208.05 430.119 212.551 431.743 216.959 433.612C219.063 434.508 221.156 435.454 223.326 436.133C223.959 437.012 224.723 437.78 225.591 438.408C227.089 439.281 228.773 439.757 230.492 439.797C232.785 440.013 235.088 440.102 237.391 440.063C239.154 440.142 240.911 439.805 242.53 439.078C242.916 438.878 243.277 438.63 243.605 438.339C244.227 438.394 244.852 438.307 245.438 438.084C246.023 437.861 246.554 437.508 246.993 437.049C248.241 435.943 249.139 434.475 249.572 432.834C250.134 430.589 249.705 427.91 251.038 426.118C251.39 425.626 251.856 425.232 252.208 424.739C252.635 424.065 252.847 423.27 252.817 422.464C252.833 422.433 252.852 422.403 252.874 422.376C253.167 421.652 253.359 420.89 253.445 420.111C253.609 419.498 253.815 418.899 254.064 418.318C254.74 416.581 255.331 414.81 255.834 413.01C256.177 411.814 256.451 410.597 256.652 409.367C256.795 408.382 256.881 407.397 256.957 406.412C257.058 404.861 257.349 403.328 257.823 401.853C259.014 398.34 259.688 394.661 259.821 390.941V390.724C261.575 390.516 263.189 389.637 264.348 388.259C265.507 386.881 266.126 385.105 266.083 383.279C266.084 382.183 265.86 381.099 265.426 380.099C266.268 378.59 266.708 376.877 266.702 375.135ZM232.652 417.944C232.757 418.328 232.88 418.703 233.004 419.077C232.443 418.515 231.9 417.934 231.339 417.363C231.558 417.442 231.786 417.511 231.995 417.6C232.215 417.692 232.426 417.808 232.623 417.944H232.652ZM229.959 416.053C226.666 413.099 222.86 410.804 219.491 407.939C221.327 408.874 223.117 409.967 224.887 411.011C226.987 412.252 229.115 413.444 231.272 414.586C230.918 415.158 230.463 415.656 229.93 416.053H229.959ZM231.358 408.608L231.52 408.441C231.52 408.864 231.52 409.248 231.52 409.613L230.634 409.298C230.879 409.083 231.111 408.853 231.329 408.608H231.358ZM202.399 416.585C203.75 415.003 204.925 413.269 205.901 411.415C207.205 413.769 209.327 415.472 211.126 417.452C208.223 417.068 205.311 416.743 202.399 416.585Z" fill="url(#paint1_linear)"/>
<path d="M207.081 387.908L209.156 388.341L216.227 399.164L213.115 399.598L207.081 387.908Z" fill="#2F2E41"/>
<path d="M156.777 431.81C157.34 433.72 158.034 435.586 158.852 437.394C161.195 436.882 163.5 436.2 165.751 435.355C165.308 434.672 164.828 434.015 164.315 433.386C163.756 432.757 163.096 432.234 162.364 431.84C161.584 431.657 160.774 431.657 159.994 431.84C158.928 431.81 157.853 431.83 156.777 431.81Z" fill="#FBBEBE"/>
<path d="M162.373 434.696C161.81 434.435 161.308 434.052 160.901 433.573C160.494 433.093 160.191 432.529 160.013 431.918C159.651 430.691 159.037 429.56 158.215 428.6C158.041 428.624 157.877 428.694 157.737 428.803C157.597 428.911 157.486 429.055 157.415 429.22C157.244 429.535 157.139 429.89 156.949 430.205C156.568 430.766 155.902 431.042 155.426 431.515C154.95 431.987 154.665 432.726 154.151 433.208C153.444 433.747 152.615 434.087 151.743 434.193C150.419 434.503 149.139 434.989 147.937 435.641C147.497 435.913 147.027 436.132 146.538 436.291C145.995 436.375 145.444 436.375 144.901 436.291L141.152 436.015C140.836 435.961 140.515 435.961 140.2 436.015C139.817 436.158 139.492 436.43 139.276 436.787C139.061 437.144 138.967 437.566 139.01 437.985C139.055 438.4 139.184 438.801 139.389 439.161C139.594 439.521 139.87 439.831 140.2 440.072C140.851 440.556 141.57 440.935 142.332 441.195C145.596 442.467 148.958 443.456 152.381 444.15V444.918C154.765 446.129 157.386 446.759 160.042 446.759C160.237 446.771 160.432 446.738 160.613 446.661C160.856 446.473 161.025 446.2 161.088 445.893C161.99 443.173 162.519 440.335 162.659 437.463C162.72 436.733 162.665 435.998 162.497 435.286C162.288 434.587 162.992 434.883 162.345 434.607" fill="#2F2E41"/>
<path d="M234.279 420.071C223.164 420.761 212.182 417.393 201.048 417.038C199.666 416.944 198.278 417.033 196.918 417.304C195.502 417.701 194.13 418.253 192.826 418.949C186.859 421.824 180.683 424.208 174.516 426.581L167.426 429.309C166.047 429.953 164.552 430.289 163.039 430.294C162.364 430.294 161.536 430.146 161.136 430.727C159.985 432.499 160.527 435.089 161.288 437.079C161.536 437.719 161.954 438.418 162.621 438.487C163.088 438.454 163.546 438.334 163.972 438.132C165.257 437.778 166.541 438.674 167.874 438.822C169.51 438.999 171.033 438.034 172.584 437.443C175.154 436.458 177.952 436.458 180.654 436.025C185.175 435.247 189.371 433.071 193.292 430.599C194.718 429.547 196.313 428.767 198.003 428.294C200.005 428.05 202.034 428.289 203.931 428.994C208.543 430.34 213.082 431.938 217.53 433.78C219.843 434.821 222.214 435.719 224.63 436.468C229.903 437.896 235.479 437.551 240.551 435.483C242.33 434.755 244.262 433.514 244.357 431.485C244.424 430.353 243.567 429.358 243.006 428.383C242.644 427.763 242.273 427.142 241.883 426.541C239.98 423.686 237.658 419.865 234.279 420.071Z" fill="#2F2E41"/>
<path opacity="0.1" d="M234.279 420.071C223.164 420.761 212.182 417.393 201.048 417.038C199.666 416.944 198.278 417.033 196.918 417.304C195.502 417.701 194.13 418.253 192.826 418.949C186.859 421.824 180.683 424.208 174.516 426.581L167.426 429.309C166.047 429.953 164.552 430.289 163.039 430.294C162.364 430.294 161.536 430.146 161.136 430.727C159.985 432.499 160.527 435.089 161.288 437.079C161.536 437.719 161.954 438.418 162.621 438.487C163.088 438.454 163.546 438.334 163.972 438.132C165.257 437.778 166.541 438.674 167.874 438.822C169.51 438.999 171.033 438.034 172.584 437.443C175.154 436.458 177.952 436.458 180.654 436.025C185.175 435.247 189.371 433.071 193.292 430.599C194.718 429.547 196.313 428.767 198.003 428.294C200.005 428.05 202.034 428.289 203.931 428.994C208.543 430.34 213.082 431.938 217.53 433.78C219.843 434.821 222.214 435.719 224.63 436.468C229.903 437.896 235.479 437.551 240.551 435.483C242.33 434.755 244.262 433.514 244.357 431.485C244.424 430.353 243.567 429.358 243.006 428.383C242.644 427.763 242.273 427.142 241.883 426.541C239.98 423.686 237.658 419.865 234.279 420.071Z" fill="black"/>
<path d="M178.123 432.342C179.861 432.952 181.615 433.517 183.385 434.036C184.337 432.352 186.24 431.18 186.65 429.25C186.673 429.166 186.673 429.077 186.65 428.994C186.603 428.912 186.533 428.847 186.45 428.806C185.177 428.084 183.768 427.657 182.32 427.556C181.178 427.487 180.654 428.718 180.14 429.584C179.94 429.969 178.589 432.529 178.123 432.342Z" fill="#FBBEBE"/>
<path d="M180.559 431.14C180.039 431.049 179.543 430.847 179.102 430.547C178.661 430.247 178.286 429.856 177.999 429.397C177.761 428.954 177.495 428.353 177 428.413C176.505 428.472 176.343 429.003 176.239 429.466C175.909 431.211 175.428 432.922 174.802 434.577C174.174 436.242 173.109 437.691 171.728 438.763C171.081 439.226 170.367 439.57 169.729 440.063C169.201 440.547 168.638 440.988 168.045 441.382C167.625 441.577 167.193 441.742 166.751 441.875C166.101 442.128 165.481 442.458 164.905 442.859C164.391 443.164 163.957 443.594 163.639 444.11C163.482 444.369 163.39 444.664 163.374 444.969C163.357 445.274 163.416 445.578 163.544 445.853C163.677 446.08 163.855 446.274 164.067 446.424C164.279 446.573 164.519 446.674 164.771 446.72C165.279 446.798 165.796 446.798 166.303 446.72C168.33 446.572 170.357 446.385 172.384 446.198C173.239 446.141 174.088 446.019 174.925 445.834L176.248 445.459C177.004 445.253 177.779 445.134 178.561 445.105C178.788 445.083 179.017 445.107 179.236 445.174C179.703 445.331 180.036 445.814 180.521 445.912C180.843 445.944 181.169 445.901 181.473 445.784C182.952 445.456 184.461 445.294 185.974 445.302C186.64 445.302 187.42 445.125 187.725 444.514C188.106 443.746 187.477 442.889 187.221 442.062C187.098 441.536 187.027 440.998 187.011 440.457C186.898 439.117 186.519 437.817 185.898 436.636C185.384 435.651 184.68 434.568 185.041 433.524C185.221 433.192 185.337 432.828 185.384 432.45C185.241 430.756 181.492 431.357 180.559 431.14Z" fill="#2F2E41"/>
<path d="M217.616 401.616C215.644 400.722 214.063 399.1 213.181 397.067C213.001 396.633 212.848 396.17 212.667 395.737C212.087 394.27 211.181 392.964 210.022 391.926C209.9 391.792 209.752 391.685 209.588 391.612C209.425 391.539 209.248 391.502 209.07 391.503C208.893 391.558 208.734 391.661 208.609 391.801C208.483 391.941 208.396 392.114 208.357 392.3C208.25 392.701 208.224 393.12 208.28 393.531C208.377 394.5 208.536 395.46 208.756 396.407L209.299 398.948C209.371 399.336 209.482 399.716 209.632 400.08C209.864 400.506 210.17 400.883 210.536 401.193C211.031 401.666 211.535 402.119 212.039 402.572C212.331 402.834 212.65 403.062 212.991 403.251C213.523 403.514 214.091 403.686 214.675 403.763C216.946 404.069 219.113 404.934 220.994 406.284C220.994 406.284 220.994 404.581 220.994 404.393C220.97 403.898 220.805 403.422 220.519 403.025C219.647 402.368 218.662 401.89 217.616 401.616V401.616Z" fill="#FBBEBE"/>
<path opacity="0.1" d="M217.616 401.616C215.644 400.722 214.063 399.1 213.181 397.067C213.001 396.633 212.848 396.17 212.667 395.737C212.087 394.27 211.181 392.964 210.022 391.926C209.9 391.792 209.752 391.685 209.588 391.612C209.425 391.539 209.248 391.502 209.07 391.503C208.893 391.558 208.734 391.661 208.609 391.801C208.483 391.941 208.396 392.114 208.357 392.3C208.25 392.701 208.224 393.12 208.28 393.531C208.377 394.5 208.536 395.46 208.756 396.407L209.299 398.948C209.371 399.336 209.482 399.716 209.632 400.08C209.864 400.506 210.17 400.883 210.536 401.193C211.031 401.666 211.535 402.119 212.039 402.572C212.331 402.834 212.65 403.062 212.991 403.251C213.523 403.514 214.091 403.686 214.675 403.763C216.946 404.069 219.113 404.934 220.994 406.284C220.994 406.284 220.994 404.581 220.994 404.393C220.97 403.898 220.805 403.422 220.519 403.025C219.647 402.368 218.662 401.89 217.616 401.616V401.616Z" fill="black"/>
<path d="M240.246 382.177C241.739 382.177 242.949 380.916 242.949 379.36C242.949 377.804 241.739 376.543 240.246 376.543C238.753 376.543 237.543 377.804 237.543 379.36C237.543 380.916 238.753 382.177 240.246 382.177Z" fill="#2F2E41"/>
<path d="M238.571 377.666C237.848 377.486 237.085 377.599 236.44 377.981C236.127 378.269 235.878 378.621 235.707 379.015C235.102 380.093 234.629 381.244 234.298 382.442C234.06 383.427 234.022 384.54 233.718 385.554C233.166 387.425 231.748 389.011 231.586 390.961C231.51 391.837 231.653 392.862 231.034 393.452C230.883 393.588 230.72 393.71 230.549 393.817C230.12 394.112 229.757 394.498 229.483 394.949C229.297 395.351 229.042 395.714 228.731 396.023C228.179 396.446 227.266 396.407 226.999 397.007C226.733 397.608 227.427 398.426 227.266 399.135C227.104 399.844 226.504 399.982 226.076 400.375C225.572 400.927 225.217 401.606 225.048 402.345C224.144 402.525 223.212 402.5 222.318 402.27C221.424 402.041 220.589 401.613 219.871 401.016C220.499 402.989 220.774 405.065 220.68 407.141C220.728 407.473 220.71 407.812 220.628 408.136C220.546 408.461 220.402 408.766 220.205 409.032C222.351 409.197 224.477 409.58 226.552 410.174C227.451 410.484 228.422 410.484 229.321 410.174C229.803 409.907 230.234 409.553 230.596 409.13C231.738 407.929 232.937 406.619 233.213 404.955C233.282 404.014 233.298 403.071 233.261 402.128C233.37 400.96 233.603 399.807 233.956 398.692C234.558 396.376 234.963 394.01 235.164 391.621C235.288 390.144 236.525 388.962 237.172 387.682C238.39 385.19 239.647 382.6 239.732 379.803C239.77 378.897 239.466 377.765 238.571 377.666Z" fill="#2F2E41"/>
<path opacity="0.1" d="M238.571 377.666C237.848 377.486 237.085 377.599 236.44 377.981C236.127 378.269 235.878 378.621 235.707 379.015C235.102 380.093 234.629 381.244 234.298 382.442C234.06 383.427 234.022 384.54 233.718 385.554C233.166 387.425 231.748 389.011 231.586 390.961C231.51 391.837 231.653 392.862 231.034 393.452C230.883 393.588 230.72 393.71 230.549 393.817C230.12 394.112 229.757 394.498 229.483 394.949C229.297 395.351 229.042 395.714 228.731 396.023C228.179 396.446 227.266 396.407 226.999 397.007C226.733 397.608 227.427 398.426 227.266 399.135C227.104 399.844 226.504 399.982 226.076 400.375C225.572 400.927 225.217 401.606 225.048 402.345C224.144 402.525 223.212 402.5 222.318 402.27C221.424 402.041 220.589 401.613 219.871 401.016C220.499 402.989 220.774 405.065 220.68 407.141C220.728 407.473 220.71 407.812 220.628 408.136C220.546 408.461 220.402 408.766 220.205 409.032C222.351 409.197 224.477 409.58 226.552 410.174C227.451 410.484 228.422 410.484 229.321 410.174C229.803 409.907 230.234 409.553 230.596 409.13C231.738 407.929 232.937 406.619 233.213 404.955C233.282 404.014 233.298 403.071 233.261 402.128C233.37 400.96 233.603 399.807 233.956 398.692C234.558 396.376 234.963 394.01 235.164 391.621C235.288 390.144 236.525 388.962 237.172 387.682C238.39 385.19 239.647 382.6 239.732 379.803C239.77 378.897 239.466 377.765 238.571 377.666Z" fill="black"/>
<path d="M236.04 422.494C233.727 421.352 232.033 419.234 230.159 417.412C226.59 413.936 222.222 411.504 218.463 408.224C215.97 406.068 213.705 403.556 211.012 401.744C208.599 400.162 205.867 399.174 203.027 398.859C202.714 398.784 202.389 398.784 202.076 398.859C201.716 399.017 201.404 399.272 201.172 399.598C199.958 401.014 198.878 402.548 197.946 404.177C193.187 412.548 186.421 419.579 180.816 427.359C180.687 427.52 180.593 427.708 180.54 427.91C180.516 428.212 180.59 428.513 180.749 428.767L181.891 431.072C182.529 432.371 183.557 433.878 184.927 433.622C185.544 433.437 186.096 433.071 186.516 432.568L191.636 427.497L197.003 422.189C200.144 419.087 203.341 415.906 205.397 411.927C206.996 414.803 209.841 416.684 211.782 419.313C212.525 420.298 213.134 421.411 213.8 422.474C214.856 424.168 216.065 425.763 217.264 427.398L223.421 435.523C224.201 436.67 225.167 437.67 226.276 438.477C227.794 439.332 229.487 439.802 231.215 439.846C233.528 440.059 235.85 440.145 238.171 440.102C239.95 440.176 241.721 439.84 243.358 439.117C244.174 438.746 244.871 438.143 245.368 437.377C245.865 436.612 246.141 435.716 246.165 434.794C246.071 433.84 245.768 432.921 245.28 432.106C243.053 427.999 240.179 424.532 236.04 422.494Z" fill="#2F2E41"/>
<path d="M241.911 383.476C243.062 383.476 243.996 382.506 243.996 381.31C243.996 380.113 243.062 379.143 241.911 379.143C240.76 379.143 239.827 380.113 239.827 381.31C239.827 382.506 240.76 383.476 241.911 383.476Z" fill="#E8E8F0"/>
<path d="M241.455 379.685C241.92 380.652 242.001 381.768 241.683 382.797C241.354 383.807 240.904 384.77 240.341 385.663C239.858 386.582 239.273 387.442 238.6 388.223C241.816 388.381 244.928 387.081 247.755 385.505C250.038 384.235 252.313 382.669 253.531 380.296C253.167 380.385 252.79 380.395 252.423 380.323C252.055 380.252 251.707 380.102 251.399 379.882C250.786 379.445 250.238 378.918 249.772 378.316L248.164 376.445C247.799 376.033 247.48 375.581 247.212 375.096C246.859 374.432 246.709 373.673 246.784 372.919C246.143 373.611 245.427 374.226 244.652 374.751C243.501 375.529 242.235 376.09 241.074 376.859C240.674 377.134 239.761 377.568 239.999 378.119C240.237 378.671 241.131 379.094 241.455 379.685Z" fill="#FBBEBE"/>
<path opacity="0.1" d="M241.455 379.685C241.92 380.652 242.001 381.768 241.683 382.797C241.354 383.807 240.904 384.77 240.341 385.663C239.858 386.582 239.273 387.442 238.6 388.223C241.816 388.381 244.928 387.081 247.755 385.505C250.038 384.235 252.313 382.669 253.531 380.296C253.167 380.385 252.79 380.395 252.423 380.323C252.055 380.252 251.707 380.102 251.399 379.882C250.786 379.445 250.238 378.918 249.772 378.316L248.164 376.445C247.799 376.033 247.48 375.581 247.212 375.096C246.859 374.432 246.709 373.673 246.784 372.919C246.143 373.611 245.427 374.226 244.652 374.751C243.501 375.529 242.235 376.09 241.074 376.859C240.674 377.134 239.761 377.568 239.999 378.119C240.237 378.671 241.131 379.094 241.455 379.685Z" fill="black"/>
<path d="M241.493 380.01C241.167 380.485 240.992 381.053 240.992 381.635C240.992 382.217 241.167 382.785 241.493 383.26C241.588 383.378 241.93 384.117 242.073 384.126C242.143 384.12 242.211 384.1 242.273 384.066C242.335 384.032 242.39 383.986 242.435 383.929C243.167 383.14 243.847 382.301 244.471 381.418C245.109 380.538 246.025 379.917 247.06 379.665C248.342 379.615 249.602 380.021 250.628 380.817C251.106 381.043 251.526 381.38 251.856 381.802C252.086 382.236 252.222 382.717 252.256 383.211C252.567 386.183 252.688 389.173 252.617 392.162C252.672 394.321 252.535 396.48 252.208 398.613C251.999 399.706 251.694 400.779 251.552 401.892C251.44 402.872 251.395 403.86 251.418 404.846V408.963C251.393 409.718 251.444 410.474 251.571 411.218C251.761 412.114 252.17 412.951 252.446 413.828C252.731 414.835 252.925 415.866 253.027 416.91L253.569 421.164C253.74 422.504 253.874 423.971 253.084 425.104C252.732 425.586 252.265 425.98 251.904 426.463C250.562 428.275 250.952 430.865 250.429 433.08C249.988 434.702 249.078 436.146 247.821 437.217C247.373 437.675 246.833 438.027 246.24 438.246C245.646 438.466 245.013 438.548 244.386 438.487C242.711 438.162 241.712 436.36 241.255 434.656C240.798 432.952 240.636 431.101 239.647 429.663C238.738 428.575 237.665 427.647 236.468 426.916C235.257 426.173 234.368 424.978 233.984 423.577C233.88 422.957 233.984 422.317 233.88 421.686C233.79 420.893 233.497 420.139 233.03 419.504C232.562 418.868 231.939 418.374 231.224 418.072C230.368 417.728 229.321 417.6 228.826 416.792C230.052 415.998 230.945 414.758 231.329 413.316C231.708 411.883 231.912 410.408 231.938 408.923L232.224 403.999C232.357 401.784 232.414 399.597 233.356 397.608C233.775 396.722 234.308 395.885 234.736 395.008C235.316 393.777 235.809 392.503 236.211 391.197C236.896 389.169 237.581 387.14 238.191 385.092C238.428 384.097 238.793 383.14 239.275 382.245C239.789 381.32 240.532 380.207 241.493 380.01Z" fill="#E8E8F0"/>
<path d="M230.882 412.154H232.148L232.414 410.184C232.449 409.789 232.538 409.401 232.681 409.032C232.89 408.64 233.135 408.271 233.413 407.929C234.65 406.107 234.565 403.694 234.869 401.478C235.421 398.551 236.356 395.715 237.648 393.049L240.103 387.386C240.327 386.923 240.505 386.438 240.636 385.938C240.739 385.387 240.79 384.826 240.788 384.264C240.788 383.388 241.055 380.197 241.083 379.34C241.083 379.015 240.389 379.193 240.246 378.907C239.942 378.277 239.523 379.98 238.942 380.355C238.397 380.785 238 381.386 237.81 382.068C237.277 383.486 236.953 385.023 236.459 386.431C236.028 387.901 235.238 389.23 234.165 390.291C233.661 390.744 233.08 391.109 232.604 391.601C231.082 393.157 230.929 395.629 230.882 397.854C230.844 399.213 230.596 412.154 230.882 412.154Z" fill="#2F2E41"/>
<path d="M249.096 377.656C248.508 377.975 247.999 378.429 247.607 378.984C247.216 379.539 246.954 380.18 246.841 380.857C246.624 382.215 246.24 383.539 245.699 384.796C244.157 387.573 240.227 388.381 239.133 391.384C238.857 392.394 238.71 393.437 238.695 394.486C238.505 396.643 237.819 398.721 237.61 400.868C237.505 402.539 237.544 404.216 237.724 405.88L239.104 422.839C239.368 425.333 239.23 427.856 238.695 430.303C240.109 430.512 241.551 430.265 242.825 429.594C244.11 428.984 245.29 428.147 246.536 427.438C248.668 426.216 251.028 425.36 252.903 423.735C253.239 423.458 253.528 423.125 253.759 422.75C254.046 422.038 254.238 421.29 254.33 420.524C254.492 419.924 254.699 419.338 254.949 418.771C255.636 417.059 256.233 415.311 256.738 413.532C257.081 412.356 257.355 411.159 257.556 409.948C257.709 408.963 257.794 407.978 257.87 406.993C257.97 405.466 258.264 403.96 258.746 402.513C259.94 399.054 260.617 395.428 260.754 391.759C260.791 391.231 260.756 390.7 260.649 390.183C260.44 389.55 260.159 388.945 259.812 388.381C259.241 387.268 258.86 386.047 258.365 384.914C257.016 382.42 255.082 380.317 252.741 378.799C251.637 378.021 250.343 377.193 249.096 377.656Z" fill="#2F2E41"/>
<path d="M220.347 405.329C219.37 404.798 218.486 404.103 217.73 403.271C217.388 402.857 217.102 402.394 216.779 401.981C215.896 400.998 214.749 400.312 213.486 400.011C212.236 399.727 210.958 399.598 209.679 399.627C208.821 399.567 207.959 399.674 207.138 399.942C206.729 400.084 206.361 400.329 206.067 400.656C205.772 400.983 205.562 401.381 205.454 401.813C205.419 402.349 205.52 402.884 205.745 403.367C205.97 403.851 206.312 404.265 206.739 404.571C207.482 405.202 208.359 405.641 209.299 405.851C210.064 405.991 210.836 406.087 211.611 406.137C216.16 406.629 220.224 409.189 224.211 411.523C227.713 413.585 231.285 415.502 234.926 417.275C235.067 416.148 235.128 415.013 235.107 413.877C235.107 413.03 235.041 411.73 234.27 411.228C233.173 410.753 232.031 410.4 230.863 410.174C228.514 409.38 226.222 408.42 224.002 407.299C222.745 406.737 221.537 406.048 220.347 405.329Z" fill="#FBBEBE"/>
<path d="M240.246 378.72C244.724 378.72 248.354 374.941 248.354 370.28C248.354 365.619 244.724 361.841 240.246 361.841C235.768 361.841 232.138 365.619 232.138 370.28C232.138 374.941 235.768 378.72 240.246 378.72Z" fill="#FBBEBE"/>
<path d="M251.409 387.219C250.761 388.159 250.234 389.182 249.839 390.262C248.887 392.389 247.269 394.201 246.479 396.456C245.689 398.711 245.68 401.606 244.053 403.448C243.727 403.73 243.48 404.097 243.339 404.512C243.332 404.769 243.307 405.026 243.263 405.28C243.025 405.949 241.969 405.979 241.769 406.668C241.712 406.865 241.769 407.082 241.674 407.279C241.512 407.722 240.941 407.791 240.57 408.057C239.78 408.608 239.942 409.889 239.38 410.686C239.135 410.983 238.819 411.208 238.463 411.338C238.107 411.468 237.724 411.498 237.353 411.425C236.615 411.269 235.905 410.993 235.25 410.607C235.014 410.474 234.756 410.39 234.489 410.361C234.173 410.373 233.868 410.483 233.613 410.676C232.895 411.224 232.32 411.946 231.938 412.78C231.556 413.613 231.38 414.531 231.424 415.453C231.534 417.298 231.959 419.109 232.681 420.8C232.761 421.093 232.9 421.365 233.09 421.598C233.373 421.828 233.716 421.966 234.075 421.994C234.434 422.022 234.794 421.939 235.107 421.755C235.728 421.374 236.389 421.066 237.077 420.84C238.333 420.603 239.561 421.499 240.836 421.421C241.765 421.279 242.639 420.881 243.367 420.268C244.648 419.478 245.798 418.48 246.774 417.314C247.326 416.556 247.726 415.699 248.221 414.891C248.85 413.91 249.534 412.966 250.267 412.065L254.949 406.156C255.414 405.595 255.834 404.996 256.205 404.364C256.621 403.502 256.94 402.593 257.157 401.656C257.657 400.095 257.977 398.479 258.108 396.84C258.137 395.485 258.023 394.131 257.766 392.802C257.624 391.479 257.303 390.183 256.814 388.952C255.796 386.726 253.322 384.914 251.409 387.219Z" fill="#2F2E41"/>
<path d="M267.701 376.209C267.708 374.713 267.372 373.236 266.72 371.901C266.068 370.566 265.119 369.409 263.951 368.527C263.913 365.87 262.966 363.312 261.277 361.309C259.589 359.306 257.269 357.987 254.73 357.586C254.242 355.066 252.909 352.806 250.967 351.204C249.025 349.602 246.599 348.761 244.116 348.831C241.633 348.9 239.254 349.875 237.399 351.584C235.543 353.292 234.33 355.624 233.975 358.167C230.606 357.379 227.523 358.404 226.961 360.55C226.4 362.697 228.779 365.474 232.328 366.459C233.448 366.784 234.614 366.904 235.773 366.814C236.6 368.074 237.672 369.141 238.921 369.947C240.17 370.752 241.568 371.279 243.025 371.492C243.457 373.522 244.426 375.387 245.824 376.88C247.223 378.372 248.995 379.432 250.943 379.941C251.485 381.287 252.322 382.484 253.388 383.437C253.388 383.703 253.388 383.979 253.388 384.254C253.388 385.187 253.566 386.11 253.911 386.972C254.255 387.833 254.761 388.616 255.398 389.275C256.035 389.935 256.791 390.458 257.624 390.814C258.456 391.171 259.349 391.355 260.25 391.355C261.151 391.355 262.043 391.171 262.875 390.814C263.708 390.458 264.464 389.935 265.101 389.275C265.738 388.616 266.244 387.833 266.589 386.972C266.933 386.11 267.111 385.187 267.111 384.254C267.111 383.171 266.888 382.1 266.454 381.113C267.292 379.625 267.723 377.93 267.701 376.209V376.209Z" fill="#F86D70"/>
<path opacity="0.1" d="M229.245 361.003C229.807 358.857 232.89 357.832 236.259 358.62C236.658 356.036 237.928 353.681 239.844 351.973C241.76 350.264 244.198 349.312 246.727 349.284H247.421C246.453 348.979 245.446 348.823 244.433 348.822C241.904 348.849 239.466 349.801 237.551 351.51C235.635 353.218 234.365 355.573 233.965 358.157C230.596 357.37 227.513 358.394 226.952 360.541C226.39 362.687 228.769 365.465 232.319 366.449C232.984 366.64 233.667 366.762 234.355 366.814C230.958 365.76 228.684 363.2 229.245 361.003Z" fill="black"/>
<path opacity="0.1" d="M255.634 384.668C255.62 384.399 255.62 384.13 255.634 383.861C254.562 382.912 253.724 381.714 253.188 380.364C251.238 379.858 249.463 378.797 248.064 377.303C246.665 375.808 245.698 373.939 245.271 371.905C243.812 371.697 242.412 371.173 241.161 370.369C239.91 369.565 238.837 368.498 238.01 367.237C237.334 367.295 236.654 367.276 235.983 367.178C236.816 368.338 237.863 369.315 239.064 370.054C240.264 370.793 241.594 371.278 242.977 371.482C243.409 373.512 244.378 375.377 245.777 376.87C247.175 378.362 248.947 379.422 250.895 379.931C251.437 381.277 252.275 382.474 253.341 383.427C253.341 383.693 253.341 383.969 253.341 384.245C253.31 386.153 254.01 387.997 255.289 389.374C256.567 390.75 258.32 391.547 260.164 391.591C258.818 391.051 257.664 390.098 256.855 388.861C256.045 387.625 255.619 386.162 255.634 384.668V384.668Z" fill="black"/>
<path d="M243.964 373.378C244.513 372.947 244.506 371.983 243.95 371.226C243.393 370.468 242.498 370.203 241.95 370.634C241.401 371.064 241.408 372.028 241.964 372.786C242.521 373.544 243.416 373.809 243.964 373.378Z" fill="#FBBEBE"/>
<path d="M737.311 331.23C735.495 331.326 733.682 330.983 732.016 330.228C730.35 329.473 728.877 328.327 727.714 326.881C726.55 325.436 725.727 323.729 725.311 321.897C724.895 320.066 724.896 318.159 725.316 316.328C725.735 314.497 726.56 312.792 727.727 311.348C728.893 309.904 730.368 308.761 732.035 308.009C733.702 307.258 735.515 306.918 737.331 307.017C739.147 307.116 740.916 307.651 742.497 308.58L740.422 314.488L744.686 310.254C745.822 311.321 746.743 312.61 747.396 314.046C748.049 315.483 748.422 317.039 748.492 318.625C748.549 319.746 748.45 320.871 748.197 321.963C747.601 324.521 746.216 326.809 744.252 328.481C742.288 330.152 739.851 331.117 737.311 331.23V331.23Z" fill="#008D47"/>
<path opacity="0.1" d="M737.311 331.23C735.292 331.326 733.283 330.88 731.479 329.936C729.676 328.992 728.139 327.581 727.018 325.841C725.896 324.101 725.229 322.091 725.08 320.005C724.931 317.919 725.305 315.829 726.167 313.937C727.098 314.582 727.9 315.408 728.527 316.369C729.223 317.752 729.998 319.091 730.849 320.377C732.667 322.603 735.788 323.332 738.614 323.194C741.441 323.056 744.172 322.209 746.989 321.963C747.379 321.963 747.779 321.894 748.169 321.884C747.588 324.452 746.213 326.754 744.254 328.441C742.294 330.127 739.856 331.107 737.311 331.23V331.23Z" fill="black"/>
</g>
<defs>
<linearGradient id="paint0_linear" x1="638.47" y1="546.817" x2="638.47" y2="377.315" gradientUnits="userSpaceOnUse">
<stop stop-color="#808080" stop-opacity="0.25"/>
<stop offset="0.54" stop-color="#808080" stop-opacity="0.12"/>
<stop offset="1" stop-color="#808080" stop-opacity="0.1"/>
</linearGradient>
<linearGradient id="paint1_linear" x1="59202.8" y1="65972.2" x2="59202.8" y2="55940.9" gradientUnits="userSpaceOnUse">
<stop stop-color="#808080" stop-opacity="0.25"/>
<stop offset="0.54" stop-color="#808080" stop-opacity="0.12"/>
<stop offset="1" stop-color="#808080" stop-opacity="0.1"/>
</linearGradient>
<clipPath id="clip0">
<rect width="750" height="614" fill="white"/>
</clipPath>
</defs>
</svg>
