<svg viewBox="0 0 861 614" fill="none" xmlns="http://www.w3.org/2000/svg">
<g clip-path="url(#clip0)">
<path d="M556 319.5V496H585.333V335.041H702.667V496H732V143H702.667C692.946 143 678.027 190.894 678.027 239.02C678.027 275.296 682.505 306.384 688.872 319.5H556ZM702.667 319.5H702.381C702.477 319.303 702.572 319.094 702.667 318.889V319.5Z" fill="#968D84"/>
<path d="M664.776 56H664.776C641.151 56 622 76.5219 622 101.837V134H632.245L638.176 122.083L636.693 134H702.542L707.934 123.167L706.586 134H714V108.746C714 79.6154 691.962 56 664.776 56Z" fill="#2F2E41"/>
<path d="M615.967 266L589.152 276.735L495.971 348.088C492.545 352.054 490.445 356.889 489.938 361.98C489.267 370.189 461.112 413.127 471.168 418.81C481.223 424.494 517.423 441.543 519.434 430.177C521.445 418.811 532.171 370.189 532.171 370.189L622 294.415L615.967 266Z" fill="#2F2E41"/>
<path d="M511 420.536L499.594 452.24C499.594 452.24 511.671 464.287 505.632 474.432V509.305H496.239L493.555 490.917C493.555 490.917 482.856 509.073 477.452 509.305C466.123 509.792 443.69 513.6 443.019 507.894C442.348 502.187 460.007 496.624 460.007 496.624L478.794 447.801L486.845 418L511 420.536Z" fill="#1A1A1E"/>
<path d="M684.995 257.175C684.995 257.175 691.003 312.495 673.646 322.553C656.289 332.611 579.52 364.672 579.52 364.672C579.52 364.672 612.23 393.589 605.555 400.504C598.879 407.419 568.839 426.278 564.834 422.506C560.828 418.734 516.102 373.473 521.442 359.014C526.783 344.555 600.882 297.407 600.882 297.407L609.56 267.861L612.23 243.973L640.268 227L684.995 257.175Z" fill="#2F2E41"/>
<path d="M654 128C669.464 128 682 115.912 682 101C682 86.0883 669.464 74 654 74C638.536 74 626 86.0883 626 101C626 115.912 638.536 128 654 128Z" fill="#FFB9B9"/>
<path d="M675.383 112C675.383 112 674.076 136.157 694.344 143.786C714.612 151.414 644 201 644 201V145.693C644 145.693 653.153 136.157 644 121.536L675.383 112Z" fill="#FFB9B9"/>
<path d="M719 225L713.869 249.693L698.476 334.535C698.476 334.535 711.303 370.625 693.986 369.992C676.669 369.359 685.007 330.736 685.007 330.736L693.986 260.457V233.231L719 225Z" fill="#FFB9B9"/>
<path d="M605.946 212L599.913 234.165L572.431 296.859C572.431 296.859 553.662 326.623 569.079 325.99C584.496 325.357 584.496 296.859 584.496 296.859L616 246.197V217.699L605.946 212Z" fill="#FFB9B9"/>
<path d="M600.143 398L621.946 417.53C621.946 417.53 637.143 414.38 643.089 431.39C649.036 448.399 653 459.109 653 459.109L645.071 463.519L635.161 450.289C635.161 450.289 629.214 474.229 623.268 476.119C617.321 478.009 587.589 490.609 590.232 476.119L604.768 455.959C604.768 455.959 606.75 433.28 600.804 431.39C594.857 429.5 579 410.6 579 410.6L600.143 398Z" fill="#1F1E26"/>
<path d="M685.976 277C685.976 277 622.552 255.449 618.504 257.351C615.49 258.602 612.281 259.384 609 259.668L609.058 251.013C609.058 251.013 629.974 244.04 641.444 248.477C652.914 252.914 688 272.563 688 272.563L685.976 277Z" fill="#3F3D56"/>
<path d="M647.355 187.706C647.355 187.706 665.498 168.123 670.874 156.121C674.275 148.845 680.518 143.074 688.314 140C688.314 140 728.664 148.541 727.992 163.702C727.32 178.862 702.457 202.235 702.457 202.235C702.457 202.235 705.816 286.249 687.673 284.986C683.76 280.595 680.998 275.403 679.609 269.825C677.594 260.982 615.1 251.506 615.1 251.506C615.1 251.506 609.724 260.35 609.052 256.56C608.38 252.77 614.428 159.911 614.428 159.911L646.472 140L647.355 187.706Z" fill="#D0CDE1"/>
<path d="M722.651 157.118L723.098 157.356C724.526 158.115 725.714 159.222 726.541 160.561C727.368 161.901 727.804 163.425 727.804 164.977L727.797 211.977C727.802 213.254 728.1 214.515 728.671 215.673C729.241 216.83 730.071 217.856 731.101 218.679C733.674 220.754 736.06 223.744 731.136 225.301C723.121 227.834 691.726 240.5 691.058 236.067C690.39 231.634 689.054 226.567 691.058 226.567C692.627 226.567 701.974 181.153 709.485 161.736C709.944 160.548 710.669 159.467 711.612 158.571C712.554 157.674 713.69 156.982 714.943 156.543C716.195 156.104 717.532 155.928 718.863 156.027C720.194 156.126 721.487 156.498 722.651 157.118V157.118Z" fill="#D0CDE1"/>
<path d="M624 157L614.809 159.569L604.304 203.881C604.304 203.881 591.83 206.45 595.769 210.945C599.708 215.44 616.122 227 616.122 227L624 157Z" fill="#D0CDE1"/>
<path d="M677.619 68.7107C675.528 66.0452 672.818 63.8728 669.699 62.3622C666.581 60.8515 663.138 60.0432 659.637 60H658.784C642.335 60 629 74.1293 629 91.5588V91.5588H634.512L635.402 85.1273L636.707 91.5588H669.396L672.135 86.1177L671.45 91.5588H677.881C680.882 105.706 676.57 119.853 664.946 134H675.901L681.378 123.118L680.009 134H700.892L705 108.971C705 90.2258 693.527 74.3306 677.619 68.7107Z" fill="#2F2E41"/>
<path d="M118.539 360C125.557 345.509 130.493 311.162 130.493 271.085C130.493 217.914 114.048 165 103.333 165H71V555H103.333V377.17H232.667V555H265V360H118.539ZM103.333 359.325C103.438 359.552 103.542 359.782 103.648 360H103.333V359.325Z" fill="#94908D"/>
<path d="M253.161 289C253.161 289 291.869 304.513 279.596 313.639C267.323 322.764 241.832 302.688 242.776 299.951C243.72 297.213 239 290.825 239 290.825L253.161 289Z" fill="#FFB9B9"/>
<path d="M219.688 168L231.875 178.833L234.688 210.431L244.062 243.833C244.062 243.833 260 275.431 257.188 281.75C254.375 288.069 260 289.875 260 289.875L238.438 298C238.438 298 215 272.722 215 267.306C215 261.889 219.688 168 219.688 168Z" fill="#575A88"/>
<path opacity="0.1" d="M219.688 168L231.875 178.833L234.688 210.431L244.062 243.833C244.062 243.833 260 275.431 257.188 281.75C254.375 288.069 260 289.875 260 289.875L238.438 298C238.438 298 215 272.722 215 267.306C215 261.889 219.688 168 219.688 168Z" fill="black"/>
<path d="M335.751 492.163C335.751 492.163 330.987 513.023 330.035 514.837C329.082 516.651 348.136 523 348.136 523L371 507.581C371 507.581 361.473 487.628 361.473 484L335.751 492.163Z" fill="#575A88"/>
<path d="M212.104 291L218.703 298.228C218.703 298.228 355.398 314.492 358.226 339.791C361.054 365.09 380.851 484.357 369.539 487.971C358.226 491.585 329.002 505.138 329.002 497.91C329.002 490.682 310.147 391.293 313.918 373.222C313.918 373.222 150.827 353.344 147.056 330.756C143.285 308.167 150.827 298.228 150.827 298.228L212.104 291Z" fill="#2F2E41"/>
<path opacity="0.1" d="M212.104 291L218.703 298.228C218.703 298.228 355.398 314.492 358.226 339.791C361.054 365.09 380.851 484.357 369.539 487.971C358.226 491.585 329.002 505.138 329.002 497.91C329.002 490.682 310.147 391.293 313.918 373.222C313.918 373.222 150.827 353.344 147.056 330.756C143.285 308.167 150.827 298.228 150.827 298.228L212.104 291Z" fill="black"/>
<path d="M334.506 514.082C334.506 514.082 330.7 506.106 328.797 508.765C326.894 511.423 320.234 542.44 326.894 542.44C333.554 542.44 394.448 556.619 403.011 554.847C411.574 553.074 427.749 555.733 425.846 546.871C423.943 538.009 414.428 537.123 414.428 537.123C414.428 537.123 379.224 517.627 377.321 507.878C375.419 498.13 364.952 503.447 364.952 503.447V509.651C364.952 509.651 344.972 523.83 334.506 514.082Z" fill="#1C1C1E"/>
<path d="M154.079 99.9603C154.079 99.9603 160.639 130.674 146.581 133.383C132.524 136.093 164.387 154.16 164.387 154.16L185.005 165L200 150.547C200 150.547 186.411 123.899 196.72 104.025C207.029 84.1521 154.079 99.9603 154.079 99.9603Z" fill="#9F616A"/>
<path d="M200 150.547L185.005 165L164.387 154.16C164.387 154.16 132.524 136.093 146.581 133.383C155.625 131.64 156.131 118.307 155.353 109.021C155.099 105.981 154.674 102.956 154.079 99.9603C154.079 99.9603 207.029 84.1521 196.72 104.025C195.154 107.094 194.067 110.37 193.496 113.745C190.338 131.604 200 150.547 200 150.547Z" fill="#FFB9B9"/>
<path d="M254 518.788V539H289.22L292 531.091L288.293 510L254 518.788Z" fill="#575A88"/>
<path d="M105 308.795C105 308.795 105 361.868 127.664 363.668C150.328 365.467 231.542 375.362 231.542 375.362C231.542 375.362 236.263 463.518 244.763 492.304C253.262 521.09 245.707 522.889 253.262 524.688C260.816 526.487 292.924 520.19 291.98 513.893C291.035 507.596 287.258 348.375 287.258 348.375C287.258 348.375 295.757 314.192 182.436 298L105 308.795Z" fill="#2F2E41"/>
<path d="M255.591 532.695C255.591 532.695 249.909 520.902 248.963 524.531C248.016 528.159 236.653 559.909 248.016 562.631C259.378 565.352 295.36 579.866 319.032 578.959C342.704 578.052 345.544 577.145 345.544 577.145C345.544 577.145 352.172 568.074 343.65 562.631C335.129 557.188 300.094 525.438 298.2 521.809C296.306 518.181 282.103 515.459 282.103 521.809C282.103 528.159 262.219 540.859 255.591 532.695Z" fill="#202024"/>
<path opacity="0.1" d="M196.668 103.636C195.101 106.586 194.014 109.734 193.442 112.979C188.772 115.592 185.649 114.923 179.788 114.923C171.095 114.923 167.588 104.635 161.971 99.2948C161.53 94.337 154 99.7289 154 99.7289C154 99.7289 206.983 84.5344 196.668 103.636Z" fill="black"/>
<path d="M178 115C195.121 115 209 101.792 209 85.5C209 69.2076 195.121 56 178 56C160.879 56 147 69.2076 147 85.5C147 101.792 160.879 115 178 115Z" fill="#FFB9B9"/>
<path d="M232 179.682C232 179.682 227.252 211.94 224.403 223.589C221.555 235.238 217.756 289.001 215.857 296.169C213.958 303.337 202.563 305.13 179.773 302.441C178.342 302.271 176.903 302.17 175.462 302.137C161.427 301.716 145.37 306.671 130.509 310.56C121.962 312.8 113.805 314.681 106.655 314.986C95.8297 315.452 92.6581 304.126 93.0285 291.868C93.3798 280.461 96.8078 268.23 100.008 263.911C105.772 256.133 100.103 186.304 102.23 163.276V163.267C102.553 159.754 103.056 157.335 103.806 156.385C109.504 149.217 146.537 131.296 150.687 132.021C154.827 132.747 190.218 153.697 190.218 153.697C198.765 153.697 198.489 144.951 198.489 144.951C198.489 144.951 204.462 155.489 215.857 158.177C227.252 160.865 232 179.682 232 179.682Z" fill="#575A88"/>
<path d="M168.689 296C168.689 296 229.382 297.912 218.75 305.045C208.118 312.179 161.008 318.703 160.065 309.382C159.123 300.061 168.689 296 168.689 296Z" fill="#FFB9B9"/>
<path opacity="0.1" d="M174.997 301.577C175.195 305.02 165.438 312.776 162.283 318.022C160.536 320.927 147.01 317.098 130.282 310.006C117.445 304.536 104.992 298.288 93 291.301C93.3495 279.886 96.7593 267.647 99.9425 263.325C105.676 255.541 100.037 185.663 102.153 162.619V162.61C102.657 162.367 103.182 162.163 103.721 162H115.055C153.782 179.037 109.388 252.564 109.388 252.564C109.388 252.564 167.951 298.295 173.618 300.088C173.99 300.155 174.327 300.338 174.577 300.608C174.827 300.877 174.975 301.218 174.997 301.577V301.577Z" fill="black"/>
<path d="M114.78 156H103.396C103.396 156 92.9594 158.707 84.4208 176.755C75.8822 194.802 44.5739 250.75 72.0873 272.407C99.6006 294.064 158.422 319.331 162.217 313.014C166.012 306.697 179.294 296.771 173.602 294.966C167.91 293.162 109.088 247.14 109.088 247.14C109.088 247.14 153.678 173.145 114.78 156Z" fill="#575A88"/>
<path d="M173.028 71.5468C173.028 71.5468 174.428 53.5387 191.69 60.8814C208.952 68.224 207.826 47.9852 202.609 44.4087C197.393 40.8323 197.558 39.9472 178.479 42.3401C159.4 44.733 122.358 48.7872 134.335 84.4515C146.313 120.116 157.16 110.941 157.16 110.941C157.16 110.941 147.639 78.848 157.286 84.9622L166.932 91.0765L172.023 90.0742L173.028 71.5468Z" fill="#2F2E41"/>
<path d="M799 331.465C799 315.192 688.19 302 551.5 302C414.81 302 304 315.192 304 331.465C304 337.772 320.654 343.616 349 348.409V550H362.5V350.487C407.9 356.874 475.716 360.931 551.5 360.931C627.911 360.931 696.225 356.807 741.625 350.329V550H755.125V348.215C782.783 343.459 799 337.688 799 331.465Z" fill="#7A4C21"/>
<path d="M624 332C656.033 332 682 325.956 682 318.5C682 311.044 656.033 305 624 305C591.967 305 566 311.044 566 318.5C566 325.956 591.967 332 624 332Z" fill="#F2F2F2"/>
<path d="M624.5 330C650.734 330 672 324.851 672 318.5C672 312.149 650.734 307 624.5 307C598.266 307 577 312.149 577 318.5C577 324.851 598.266 330 624.5 330Z" fill="#D0CDE1"/>
<path d="M408.5 343C440.809 343 467 336.956 467 329.5C467 322.044 440.809 316 408.5 316C376.191 316 350 322.044 350 329.5C350 336.956 376.191 343 408.5 343Z" fill="#F2F2F2"/>
<path d="M408 341C433.957 341 455 335.851 455 329.5C455 323.149 433.957 318 408 318C382.043 318 361 323.149 361 329.5C361 335.851 382.043 341 408 341Z" fill="#D0CDE1"/>
<path d="M622.5 318C637.688 318 650 315.985 650 313.5C650 311.015 637.688 309 622.5 309C607.312 309 595 311.015 595 313.5C595 315.985 607.312 318 622.5 318Z" fill="#0C640A"/>
<path d="M608 312C612.971 312 617 309.985 617 307.5C617 305.015 612.971 303 608 303C603.029 303 599 305.015 599 307.5C599 309.985 603.029 312 608 312Z" fill="#79FF63"/>
<path d="M604 312C608.418 312 612 309.985 612 307.5C612 305.015 608.418 303 604 303C599.582 303 596 305.015 596 307.5C596 309.985 599.582 312 604 312Z" fill="#2AA42E"/>
<path d="M642.5 313C647.194 313 651 310.985 651 308.5C651 306.015 647.194 304 642.5 304C637.806 304 634 306.015 634 308.5C634 310.985 637.806 313 642.5 313Z" fill="#3BA039"/>
<path d="M622 312C626.971 312 631 309.985 631 307.5C631 305.015 626.971 303 622 303C617.029 303 613 305.015 613 307.5C613 309.985 617.029 312 622 312Z" fill="#79FF63"/>
<path d="M637.5 312C642.194 312 646 309.985 646 307.5C646 305.015 642.194 303 637.5 303C632.806 303 629 305.015 629 307.5C629 309.985 632.806 312 637.5 312Z" fill="#31942F"/>
<path d="M649 304.226C633.254 309.258 615.588 309.258 596 304.226V303.534C595.997 298.303 598.129 293.271 601.955 289.479C605.782 285.687 611.01 283.426 616.558 283.162C621.228 282.941 625.906 282.946 630.575 283.179C635.566 283.453 640.257 285.516 643.683 288.944C647.11 292.373 649.012 296.907 649 301.615V304.226Z" fill="#74502F"/>
<path d="M640.943 323.265C629.344 324.245 617.656 324.245 606.057 323.265C603.306 323.039 600.753 321.966 598.895 320.254C597.036 318.542 596.004 316.313 596 314H651C650.996 316.313 649.964 318.542 648.105 320.254C646.247 321.966 643.694 323.039 640.943 323.265V323.265Z" fill="#74502F"/>
<path d="M616 290C614.574 290.66 613.045 291 611.5 291C609.955 291 608.426 290.66 607 290C608.426 289.34 609.955 289 611.5 289C613.045 289 614.574 289.34 616 290V290Z" fill="#D0CDE1"/>
<path d="M623 293.5C621.891 294.49 620.701 295 619.5 295C618.299 295 617.109 294.49 616 293.5C617.109 292.51 618.299 292 619.5 292C620.701 292 621.891 292.51 623 293.5V293.5Z" fill="#D0CDE1"/>
<path d="M624 287.5C622.891 287.83 621.701 288 620.5 288C619.299 288 618.109 287.83 617 287.5C618.109 287.17 619.299 287 620.5 287C621.701 287 622.891 287.17 624 287.5V287.5Z" fill="#D0CDE1"/>
<path d="M639 287.5C637.733 287.83 636.373 288 635 288C633.627 288 632.267 287.83 631 287.5C632.267 287.17 633.627 287 635 287C636.373 287 637.733 287.17 639 287.5V287.5Z" fill="#D0CDE1"/>
<path d="M634 290.5C632.891 290.83 631.701 291 630.5 291C629.299 291 628.109 290.83 627 290.5C628.109 290.17 629.299 290 630.5 290C631.701 290 632.891 290.17 634 290.5V290.5Z" fill="#D0CDE1"/>
<path d="M407.5 329C422.688 329 435 326.985 435 324.5C435 322.015 422.688 320 407.5 320C392.312 320 380 322.015 380 324.5C380 326.985 392.312 329 407.5 329Z" fill="#287116"/>
<path d="M393 322C397.971 322 402 320.209 402 318C402 315.791 397.971 314 393 314C388.029 314 384 315.791 384 318C384 320.209 388.029 322 393 322Z" fill="#79FF63"/>
<path d="M390 322C394.971 322 399 320.209 399 318C399 315.791 394.971 314 390 314C385.029 314 381 315.791 381 318C381 320.209 385.029 322 390 322Z" fill="#3BA039"/>
<path d="M428 323C432.418 323 436 321.209 436 319C436 316.791 432.418 315 428 315C423.582 315 420 316.791 420 319C420 321.209 423.582 323 428 323Z" fill="#0C640A"/>
<path d="M408 322C412.971 322 417 320.209 417 318C417 315.791 412.971 314 408 314C403.029 314 399 315.791 399 318C399 320.209 403.029 322 408 322Z" fill="#2AA42E"/>
<path d="M423 322C427.971 322 432 320.209 432 318C432 315.791 427.971 314 423 314C418.029 314 414 315.791 414 318C414 320.209 418.029 322 423 322Z" fill="#287116"/>
<path d="M434 315.377C418.254 320.208 400.588 320.208 381 315.377V314.713C380.997 309.691 383.129 304.86 386.955 301.22C390.782 297.58 396.01 295.409 401.558 295.155C406.228 294.943 410.906 294.948 415.575 295.172C420.566 295.434 425.257 297.415 428.683 300.706C432.11 303.998 434.012 308.35 434 312.87V315.377Z" fill="#74502F"/>
<path d="M426.125 335.118C414.737 336.294 403.263 336.294 391.874 335.118C389.173 334.847 386.667 333.559 384.842 331.505C383.017 329.45 382.004 326.775 382 324H436C435.996 326.775 434.983 329.45 433.158 331.505C431.333 333.559 428.827 334.847 426.125 335.118V335.118Z" fill="#74502F"/>
<path d="M400 301C398.733 301.66 397.373 302 396 302C394.627 302 393.267 301.66 392 301C393.267 300.34 394.627 300 396 300C397.373 300 398.733 300.34 400 301Z" fill="#D0CDE1"/>
<path d="M409 304C407.574 304.66 406.045 305 404.5 305C402.955 305 401.426 304.66 400 304C401.426 303.34 402.955 303 404.5 303C406.045 303 407.574 303.34 409 304Z" fill="#D0CDE1"/>
<path d="M410 298.5C408.574 298.83 407.045 299 405.5 299C403.955 299 402.426 298.83 401 298.5C402.426 298.17 403.955 298 405.5 298C407.045 298 408.574 298.17 410 298.5V298.5Z" fill="#D0CDE1"/>
<path d="M424 298.5C422.733 298.83 421.373 299 420 299C418.627 299 417.267 298.83 416 298.5C417.267 298.17 418.627 298 420 298C421.373 298 422.733 298.17 424 298.5Z" fill="#D0CDE1"/>
<path d="M421 301.5C419.574 301.83 418.045 302 416.5 302C414.955 302 413.426 301.83 412 301.5C413.426 301.17 414.955 301 416.5 301C418.045 301 419.574 301.17 421 301.5V301.5Z" fill="#D0CDE1"/>
<path d="M673.7 315L673.832 317.757L674 321.333C674 321.333 656.672 322.261 653.181 325.757C653.1 325.832 653.025 325.914 652.958 326L646.017 324.56L646 321.319C646 321.319 646.096 321.269 646.282 321.173C646.324 321.153 646.378 321.126 646.431 321.099C654.924 317.157 664.243 315.073 673.7 315Z" fill="#287116"/>
<path opacity="0.1" d="M673.866 315L674 317.635C666.19 317.85 651.41 322 651.41 322L646 320.901C654.67 317.083 664.197 315.066 673.866 315V315Z" fill="black"/>
<path opacity="0.1" d="M646.36 321L650.684 322.249L652 325.752C651.932 325.829 651.87 325.912 651.814 326L646.014 324.531L646 321.225C646 321.225 646.08 321.173 646.236 321.076C646.271 321.055 646.316 321.027 646.36 321Z" fill="white"/>
<path d="M461.7 326L461.832 329.008L462 332.909C462 332.909 444.672 333.921 441.181 337.735C441.1 337.817 441.025 337.906 440.958 338L434.017 336.429L434 332.894C434 332.894 434.096 332.839 434.282 332.735C434.324 332.712 434.378 332.683 434.431 332.654C442.924 328.353 452.243 326.08 461.7 326Z" fill="#31942F"/>
<path opacity="0.1" d="M461.866 326L462 329.388C454.19 329.665 439.41 335 439.41 335L434 333.587C442.67 328.679 452.197 326.085 461.866 326Z" fill="#0C640A"/>
<path opacity="0.1" d="M434.36 333L438.684 334.249L440 337.752C439.932 337.829 439.87 337.912 439.814 338L434.014 336.531L434 333.225C434 333.225 434.08 333.173 434.236 333.076C434.271 333.055 434.316 333.027 434.36 333Z" fill="white"/>
<path d="M507.349 261.559C506.451 259.734 505.742 258.444 505.494 258C490.265 261.578 480.104 258.554 478.501 258.02C477.718 259.428 472.826 268.433 470.849 277.066C469.062 284.852 470.099 290.073 473.93 292.581L474.043 292.658L474.068 292.674C478.297 295.326 482.331 297.676 486.057 299.656C486.559 299.921 487.032 300.169 487.477 300.397L487.524 300.422L487.558 300.462C488.069 301.075 488.545 301.715 488.984 302.378C489.807 303.473 490.307 304.759 490.431 306.102V344.777L490.174 344.782C480.46 344.97 474.447 346.538 474.447 347.882C474.447 349.357 481.657 351 492.003 351C502.349 351 509.559 349.357 509.559 347.882C509.559 346.558 503.648 344.999 494.098 344.789L493.841 344.783L494.081 309.008C494.087 306.586 494.678 304.198 495.809 302.028C496.002 301.664 496.21 301.309 496.425 300.975C496.599 300.706 496.782 300.443 496.971 300.196L497.006 300.15L497.058 300.123C497.536 299.874 498.044 299.605 498.581 299.315L498.645 299.282C502.171 297.386 505.97 295.163 509.939 292.673C513.482 290.45 514.715 285.956 513.605 279.317C512.547 272.986 509.619 266.166 507.349 261.559Z" fill="#D0CDE1"/>
<path d="M508.152 292.622C503.89 295.271 500.372 297.257 497.681 298.688H497.678C493.753 298.436 489.811 298.54 485.907 299C483.148 297.548 479.427 295.466 474.849 292.622C474.805 292.595 474.762 292.568 474.719 292.538V292.536C470.519 289.812 470.416 284.044 471.782 278.147C475.257 277.782 480.798 277.942 488.243 280.449C497.058 283.418 506.287 281.739 511.634 280.212C512.513 285.416 511.977 290.244 508.152 292.622Z" fill="#EC991C"/>
<path d="M482 276C482.552 276 483 275.552 483 275C483 274.448 482.552 274 482 274C481.448 274 481 274.448 481 275C481 275.552 481.448 276 482 276Z" fill="#6C63FF"/>
<path d="M479 285C479.552 285 480 284.552 480 284C480 283.448 479.552 283 479 283C478.448 283 478 283.448 478 284C478 284.552 478.448 285 479 285Z" fill="white"/>
<path d="M486 278C486.552 278 487 277.776 487 277.5C487 277.224 486.552 277 486 277C485.448 277 485 277.224 485 277.5C485 277.776 485.448 278 486 278Z" fill="#6C63FF"/>
<path d="M488.5 291C488.776 291 489 290.552 489 290C489 289.448 488.776 289 488.5 289C488.224 289 488 289.448 488 290C488 290.552 488.224 291 488.5 291Z" fill="white"/>
<path d="M483.5 291C484.328 291 485 290.776 485 290.5C485 290.224 484.328 290 483.5 290C482.672 290 482 290.224 482 290.5C482 290.776 482.672 291 483.5 291Z" fill="white"/>
<path d="M497.5 270C497.776 270 498 269.552 498 269C498 268.448 497.776 268 497.5 268C497.224 268 497 268.448 497 269C497 269.552 497.224 270 497.5 270Z" fill="#6C63FF"/>
<path d="M562.197 225.559C561.279 223.734 560.554 222.444 560.3 222C544.725 225.578 534.333 222.554 532.694 222.02C531.893 223.428 526.89 232.433 524.868 241.066C523.041 248.852 524.101 254.072 528.019 256.581L528.135 256.658L528.161 256.674C532.486 259.326 536.611 261.676 540.422 263.655C540.935 263.921 541.419 264.169 541.874 264.397L541.922 264.422L541.957 264.462C542.48 265.075 542.967 265.715 543.415 266.378C544.258 267.473 544.768 268.759 544.895 270.102V308.777L544.633 308.782C534.698 308.97 528.548 310.538 528.548 311.882C528.548 313.357 535.922 315 546.503 315C557.084 315 564.458 313.357 564.458 311.882C564.458 310.558 558.413 308.999 548.646 308.789L548.383 308.783L548.628 273.008C548.634 270.586 549.239 268.198 550.396 266.028C550.593 265.664 550.805 265.309 551.026 264.975C551.203 264.706 551.391 264.443 551.584 264.196L551.62 264.15L551.673 264.123C552.162 263.875 552.681 263.605 553.231 263.315L553.296 263.282C556.902 261.386 560.788 259.163 564.846 256.673C568.47 254.45 569.732 249.956 568.596 243.317C567.514 236.986 564.519 230.166 562.197 225.559Z" fill="#D0CDE1"/>
<path d="M563.152 255.926C558.89 258.448 555.372 260.34 552.681 261.703H552.678C548.753 261.463 544.811 261.562 540.907 262C538.148 260.617 534.427 258.635 529.849 255.926C529.805 255.9 529.762 255.874 529.719 255.846V255.844C525.519 253.25 525.416 247.756 526.782 242.14C530.257 241.793 535.798 241.945 543.243 244.333C552.058 247.16 561.287 245.561 566.634 244.107C567.513 249.063 566.977 253.661 563.152 255.926Z" fill="#EC991C"/>
<path d="M538 239C538.552 239 539 238.552 539 238C539 237.448 538.552 237 538 237C537.448 237 537 237.448 537 238C537 238.552 537.448 239 538 239Z" fill="#6C63FF"/>
<path d="M535 250C535.552 250 536 249.328 536 248.5C536 247.672 535.552 247 535 247C534.448 247 534 247.672 534 248.5C534 249.328 534.448 250 535 250Z" fill="white"/>
<path d="M540.5 242C540.776 242 541 241.776 541 241.5C541 241.224 540.776 241 540.5 241C540.224 241 540 241.224 540 241.5C540 241.776 540.224 242 540.5 242Z" fill="#6C63FF"/>
<path d="M543.5 254C543.776 254 544 253.776 544 253.5C544 253.224 543.776 253 543.5 253C543.224 253 543 253.224 543 253.5C543 253.776 543.224 254 543.5 254Z" fill="white"/>
<path d="M538.5 255C538.776 255 539 254.552 539 254C539 253.448 538.776 253 538.5 253C538.224 253 538 253.448 538 254C538 254.552 538.224 255 538.5 255Z" fill="white"/>
<path d="M553.5 233C553.776 233 554 232.776 554 232.5C554 232.224 553.776 232 553.5 232C553.224 232 553 232.224 553 232.5C553 232.776 553.224 233 553.5 233Z" fill="#6C63FF"/>
</g>
<defs>
<clipPath id="clip0">
<rect width="750" height="614" fill="white"/>
</clipPath>
</defs>
</svg>
